<svg xmlns="http://www.w3.org/2000/svg" xmlns:xlink="http://www.w3.org/1999/xlink" width="36.72" height="51.343" viewBox="0 0 36.72 51.343">
  <defs>
    <clipPath id="clip-path">
      <rect id="Rectangle_204" data-name="Rectangle 204" width="36.72" height="36.685" fill="none"/>
    </clipPath>
  </defs>
  <g id="Group_412" data-name="Group 412" transform="translate(-424 -564.657)">
    <ellipse id="Ellipse_135" data-name="Ellipse 135" cx="18" cy="2" rx="18" ry="2" transform="translate(424 612)" fill="rgba(161,161,161,0.31)" opacity="0.43"/>
    <g id="Group_380" data-name="Group 380" transform="translate(424 564.657)">
      <g id="Group_379" data-name="Group 379" clip-path="url(#clip-path)">
        <path id="Path_2797" data-name="Path 2797" d="M35.171,10.491a5.562,5.562,0,0,0,.72-.977,6.359,6.359,0,0,0-9.257-8.3c-.437.474-.876.357-1.42.126a17.354,17.354,0,0,0-7.4-1.323A17.709,17.709,0,0,0,9.88,2.094,16.629,16.629,0,0,0,5.233,5.56a16.752,16.752,0,0,0-3.713,5.551,15.425,15.425,0,0,0-1.2,3.926,15.9,15.9,0,0,0-.208,4.891,5.615,5.615,0,0,0,.16,1.432,18.127,18.127,0,0,0,10.35,13.6A15.061,15.061,0,0,0,14.9,36.333a.378.378,0,0,0,.125.024,16.961,16.961,0,0,0,6.417.044,2.954,2.954,0,0,0,.9-.164,17.746,17.746,0,0,0,7.567-3.688A13.6,13.6,0,0,0,31.86,30.73a16.584,16.584,0,0,0,2.995-4.449,16.9,16.9,0,0,0,1.733-6.086c.032-.38.079-.759.092-1.139a17.976,17.976,0,0,0-1.544-8.086.416.416,0,0,1,.036-.477M25.481,5.914a5.084,5.084,0,0,1,1.965-3.431c.072-.054.164-.112.17-.215l.028.007a1.759,1.759,0,0,0,.486-.2,4.684,4.684,0,0,1,3.071-.46,4.847,4.847,0,0,1,3.543,6.794c-.172.374-.45.687-.589,1.076,0,.011.006.022.008.033-.209,0-.314.185-.437.313a4.415,4.415,0,0,1-1.388,1,2.8,2.8,0,0,0-1.46,1.979c.008.016.017.031.026.047a6.3,6.3,0,0,1-.593,1.018c-.332-.664-.65-1.288-.958-1.918A2.125,2.125,0,0,0,28.283,10.9a4.74,4.74,0,0,1-1.338-.9,4.929,4.929,0,0,1-1.565-3.726.531.531,0,0,0,.037-.1c.023-.085.041-.171.064-.256M6.912,30.668A16.6,16.6,0,0,1,2.456,23.8c-.287-.835-.449-1.7-.707-2.542L1.7,21.21c.113-.138.05-.3.033-.455-.072-.64-.17-1.278-.183-1.923a17.124,17.124,0,0,1,.942-6c.078-.226.227-.456.091-.715L2.572,12.1a.276.276,0,0,0,.085-.006.662.662,0,0,0,.261-.4,1.477,1.477,0,0,1,1.6-1.229,9.954,9.954,0,0,1,2.564.248,1.792,1.792,0,0,1,.8.45,2.356,2.356,0,0,1,.756,2.229,4.3,4.3,0,0,0,.206,2.547,9.172,9.172,0,0,0,1.66,2.415.975.975,0,0,1,.137.039,6.343,6.343,0,0,1,.788,5.733,9.459,9.459,0,0,0-.365,1.629.566.566,0,0,0-.086.1,3.65,3.65,0,0,0,.439,2.953,5.148,5.148,0,0,0,1.427,1.478,3.486,3.486,0,0,1,1.337,2.3c.068.407.078.816.114,1.224.06.668.069.666-.542.8a.077.077,0,0,0-.031.016l0,0a7.4,7.4,0,0,0-1.3-.527,17.013,17.013,0,0,1-5.5-3.415m24.894-2.217a17.375,17.375,0,0,1-2.471,2.626c-.163.134-.375.241-.423.483-.186-.046-.294.108-.416.2a17.175,17.175,0,0,1-3.052,1.827,16.464,16.464,0,0,1-2.853,1.022c-.177.045-.363.105-.431-.141a2.2,2.2,0,0,1,.387-2.22,13.164,13.164,0,0,0,1.15-1.271c.275-.323.66-.6.7-1.08l-.007-.016a6.268,6.268,0,0,0,.853-1.446,3.137,3.137,0,0,0-.12-3.069,11.721,11.721,0,0,1-1.082-2.3,2.46,2.46,0,0,1-.139-1.58l.015,0c.165-.055.245-.206.357-.319a1.112,1.112,0,0,1,1.709-.027,3.713,3.713,0,0,1,.732.93,17.863,17.863,0,0,0,5,5.8c.255.191.31.317.095.586m1.677-2.775c-.133.245-.264.491-.378.745-.128.286-.294.286-.509.1a21.26,21.26,0,0,1-1.9-1.7,17.37,17.37,0,0,1-2.543-3.52,5.4,5.4,0,0,0-1.092-1.425,2.808,2.808,0,0,0-4.023.193.624.624,0,0,0-.222.461l.025.031a2.766,2.766,0,0,0-.3,2.369A11.955,11.955,0,0,0,23.913,26.1a1.731,1.731,0,0,1,.115,1.552,8.572,8.572,0,0,1-.674,1.29.482.482,0,0,0-.089.024c-.73.841-1.49,1.655-2.207,2.505A3.339,3.339,0,0,0,20.414,34a2.4,2.4,0,0,1,.061,1.082l-.058-.017a23.561,23.561,0,0,1-2.546.078c-.514,0-1.02-.1-1.532-.123-.268-.014-.46-.138-.409-.445a5.917,5.917,0,0,0-.024-1.36,5.3,5.3,0,0,0-1.966-4.152,3.4,3.4,0,0,1-1.523-2.409l-.061-.065a12.548,12.548,0,0,1,.331-1.727,9.564,9.564,0,0,0,.353-4.415h0a.377.377,0,0,0,.072-.047,4.09,4.09,0,0,0-.46-1.548,14.557,14.557,0,0,0-1.787-2.665,3.037,3.037,0,0,1-.618-2.567,2.754,2.754,0,0,0,.092-.873A3.978,3.978,0,0,0,6.92,8.98a11.066,11.066,0,0,0-2.368-.189A4.927,4.927,0,0,1,5.1,8,14.645,14.645,0,0,0,6.233,6.548c0-.008,0-.016,0-.024.169.031.256-.112.354-.208A17.991,17.991,0,0,1,10.5,3.467c.107-.058.254-.091.274-.238l.02.013a.979.979,0,0,0,.5-.156A17.366,17.366,0,0,1,16,1.694c.265-.04.44-.027.481.318A5.08,5.08,0,0,0,18.07,5.127a14.886,14.886,0,0,1,1.353,1.447,3.085,3.085,0,0,1,.919,2.392,13.2,13.2,0,0,0-.074,1.934,4.412,4.412,0,0,0,2.973,4.484c.905.39,1.84.693,2.76,1.039a5.438,5.438,0,0,1,3.147,2.659,5.749,5.749,0,0,0,1.467,1.8,8.053,8.053,0,0,0,3.541,1.787c.3.063.4.2.31.495s-.187.557-.277.836a6.413,6.413,0,0,0-.46,1.369c.006.01.012.019.018.029-.168.013-.2.168-.264.283m1.8-6.456a.4.4,0,0,0-.074.05.955.955,0,0,0-.126.508c.01.326-.088.64-.1.963-.008.294-.151.392-.43.326-.128-.03-.26-.049-.387-.088a6.217,6.217,0,0,1-3.822-3.052,5.924,5.924,0,0,0-2.171-2.261,12.639,12.639,0,0,0-2.536-1.115,11.684,11.684,0,0,1-2.54-1.1,2.4,2.4,0,0,1-.994-1.25,5.49,5.49,0,0,1-.164-2.66,4.789,4.789,0,0,0-1.134-3.846c-.564-.7-1.178-1.348-1.8-1.99a2.726,2.726,0,0,1-.86-2.251c.166.124.372.074.561.079A16.859,16.859,0,0,1,24.1,2.538c.917.339.768.274.414,1.013a3.957,3.957,0,0,0-.191.4,2.73,2.73,0,0,0-.3,1.4c.015.018.032.034.048.052a.577.577,0,0,0-.05.14,6.377,6.377,0,0,0,3.448,6.523,1.472,1.472,0,0,1,.727.713c.482,1,.991,1.993,1.487,2.989a.723.723,0,0,0,.645.457.715.715,0,0,0,.69-.455l.964-1.963a.265.265,0,0,0,.1-.053,4.3,4.3,0,0,0,.443-.808,1.931,1.931,0,0,1,.943-.882c.291-.137.465-.11.569.212.131.4.3.794.421,1.2a17.33,17.33,0,0,1,.716,5.121c0,.212-.057.444.12.626" transform="translate(0 0)" fill="#a1a1a1"/>
        <path id="Path_2798" data-name="Path 2798" d="M230.646,30.871a3.459,3.459,0,0,0,3.369-1.449,3.329,3.329,0,0,0,.592-2.823,3.511,3.511,0,0,0-5.474-2.066,3.456,3.456,0,0,0-1.4,3.63,3.535,3.535,0,0,0,2.911,2.709m-.029-5.4a1.852,1.852,0,0,1,1.9.47,1.891,1.891,0,0,1,.565,2c-.047.164-.149.325-.059.506l.009.016-.049-.043c-.207.072-.308.265-.454.4a1.979,1.979,0,0,1-2.79-2.8c.139-.146.335-.244.4-.457l-.028-.031h0c.181.088.342-.014.507-.059" transform="translate(-200.827 -21.037)" fill="#003974"/>
      </g>
    </g>
  </g>
</svg>
