<?xml version="1.0" encoding="utf-8"?>
<!-- Generator: Adobe Illustrator 26.3.1, SVG Export Plug-In . SVG Version: 6.00 Build 0)  -->
<svg version="1.1" id="Layer_1" xmlns="http://www.w3.org/2000/svg" xmlns:xlink="http://www.w3.org/1999/xlink" x="0px" y="0px"
	 viewBox="0 0 243 240" style="enable-background:new 0 0 243 240;" xml:space="preserve">
<style type="text/css">
	.st0{opacity:4.000000e-02;fill-rule:evenodd;clip-rule:evenodd;fill:#007AFF;enable-background:new    ;}
	.st1{fill:none;}
	.st2{opacity:0.6;}
	.st3{fill-rule:evenodd;clip-rule:evenodd;fill:#1E232E;}
	.st4{fill-rule:evenodd;clip-rule:evenodd;fill:#1E232E;fill-opacity:0.6;}
</style>
<g id="_xD83D__xDCDD_-Pages">
	<g id="Login---V2" transform="translate(-469.000000, -670.000000)">
		<g id="Shapes" transform="translate(469.000000, 197.000000)">
			<g id="bottom-illustration" transform="translate(0.000000, 473.000000)">
				<path id="Rectangle" class="st0" d="M10,0h195c5.5,0,10,4.5,10,10v196c0,5.5-4.5,10-10,10H10c-5.5,0-10-4.5-10-10V10
					C0,4.5,4.5,0,10,0z"/>
				<path id="Rectangle_00000051353514233406527010000000498210544270205110_" class="st1" d="M114.5,100.5h118c5.5,0,10,4.5,10,10
					v119c0,5.5-4.5,10-10,10h-118c-5.5,0-10-4.5-10-10v-119C104.5,105,109,100.5,114.5,100.5z"/>
				<g id="Dot" class="st2">
					<g>
						<path id="path-1" class="st3" d="M34.5,182c1.4,0,2.5,1.1,2.5,2.5s-1.1,2.5-2.5,2.5s-2.5-1.1-2.5-2.5S33.1,182,34.5,182z
							 M61.5,182c1.4,0,2.5,1.1,2.5,2.5s-1.1,2.5-2.5,2.5s-2.5-1.1-2.5-2.5S60.1,182,61.5,182z M91.5,182c1.4,0,2.5,1.1,2.5,2.5
							s-1.1,2.5-2.5,2.5s-2.5-1.1-2.5-2.5S90.1,182,91.5,182z M123.5,182c1.4,0,2.5,1.1,2.5,2.5s-1.1,2.5-2.5,2.5s-2.5-1.1-2.5-2.5
							S122.1,182,123.5,182z M153.5,182c1.4,0,2.5,1.1,2.5,2.5s-1.1,2.5-2.5,2.5s-2.5-1.1-2.5-2.5S152.1,182,153.5,182z M180.5,182
							c1.4,0,2.5,1.1,2.5,2.5s-1.1,2.5-2.5,2.5s-2.5-1.1-2.5-2.5S179.1,182,180.5,182z M34.5,154c1.4,0,2.5,1.1,2.5,2.5
							s-1.1,2.5-2.5,2.5s-2.5-1.1-2.5-2.5S33.1,154,34.5,154z M61.5,154c1.4,0,2.5,1.1,2.5,2.5s-1.1,2.5-2.5,2.5s-2.5-1.1-2.5-2.5
							S60.1,154,61.5,154z M91.5,154c1.4,0,2.5,1.1,2.5,2.5s-1.1,2.5-2.5,2.5s-2.5-1.1-2.5-2.5S90.1,154,91.5,154z M123.5,154
							c1.4,0,2.5,1.1,2.5,2.5s-1.1,2.5-2.5,2.5s-2.5-1.1-2.5-2.5S122.1,154,123.5,154z M153.5,154c1.4,0,2.5,1.1,2.5,2.5
							s-1.1,2.5-2.5,2.5s-2.5-1.1-2.5-2.5S152.1,154,153.5,154z M180.5,154c1.4,0,2.5,1.1,2.5,2.5s-1.1,2.5-2.5,2.5
							s-2.5-1.1-2.5-2.5S179.1,154,180.5,154z M34.5,124c1.4,0,2.5,1.1,2.5,2.5s-1.1,2.5-2.5,2.5s-2.5-1.1-2.5-2.5
							S33.1,124,34.5,124z M61.5,124c1.4,0,2.5,1.1,2.5,2.5s-1.1,2.5-2.5,2.5s-2.5-1.1-2.5-2.5S60.1,124,61.5,124z M91.5,124
							c1.4,0,2.5,1.1,2.5,2.5s-1.1,2.5-2.5,2.5s-2.5-1.1-2.5-2.5S90.1,124,91.5,124z M123.5,124c1.4,0,2.5,1.1,2.5,2.5
							s-1.1,2.5-2.5,2.5s-2.5-1.1-2.5-2.5S122.1,124,123.5,124z M153.5,124c1.4,0,2.5,1.1,2.5,2.5s-1.1,2.5-2.5,2.5
							s-2.5-1.1-2.5-2.5S152.1,124,153.5,124z M180.5,124c1.4,0,2.5,1.1,2.5,2.5s-1.1,2.5-2.5,2.5s-2.5-1.1-2.5-2.5
							S179.1,124,180.5,124z M34.5,94c1.4,0,2.5,1.1,2.5,2.5S35.9,99,34.5,99S32,97.9,32,96.5S33.1,94,34.5,94z M153.5,94
							c1.4,0,2.5,1.1,2.5,2.5s-1.1,2.5-2.5,2.5s-2.5-1.1-2.5-2.5S152.1,94,153.5,94z M91.5,94c1.4,0,2.5,1.1,2.5,2.5
							S92.9,99,91.5,99S89,97.9,89,96.5S90.1,94,91.5,94z M180.5,94c1.4,0,2.5,1.1,2.5,2.5s-1.1,2.5-2.5,2.5s-2.5-1.1-2.5-2.5
							S179.1,94,180.5,94z M61.5,94c1.4,0,2.5,1.1,2.5,2.5S62.9,99,61.5,99S59,97.9,59,96.5S60.1,94,61.5,94z M123.5,94
							c1.4,0,2.5,1.1,2.5,2.5s-1.1,2.5-2.5,2.5s-2.5-1.1-2.5-2.5S122.1,94,123.5,94z M34.5,64c1.4,0,2.5,1.1,2.5,2.5
							S35.9,69,34.5,69S32,67.9,32,66.5S33.1,64,34.5,64z M61.5,64c1.4,0,2.5,1.1,2.5,2.5S62.9,69,61.5,69S59,67.9,59,66.5
							S60.1,64,61.5,64z M91.5,64c1.4,0,2.5,1.1,2.5,2.5S92.9,69,91.5,69S89,67.9,89,66.5S90.1,64,91.5,64z M123.5,64
							c1.4,0,2.5,1.1,2.5,2.5s-1.1,2.5-2.5,2.5s-2.5-1.1-2.5-2.5S122.1,64,123.5,64z M153.5,64c1.4,0,2.5,1.1,2.5,2.5
							s-1.1,2.5-2.5,2.5s-2.5-1.1-2.5-2.5S152.1,64,153.5,64z M180.5,64c1.4,0,2.5,1.1,2.5,2.5s-1.1,2.5-2.5,2.5s-2.5-1.1-2.5-2.5
							S179.1,64,180.5,64z M34.5,37c1.4,0,2.5,1.1,2.5,2.5S35.9,42,34.5,42S32,40.9,32,39.5S33.1,37,34.5,37z M61.5,37
							c1.4,0,2.5,1.1,2.5,2.5S62.9,42,61.5,42S59,40.9,59,39.5S60.1,37,61.5,37z M91.5,37c1.4,0,2.5,1.1,2.5,2.5S92.9,42,91.5,42
							S89,40.9,89,39.5S90.1,37,91.5,37z M123.5,37c1.4,0,2.5,1.1,2.5,2.5s-1.1,2.5-2.5,2.5s-2.5-1.1-2.5-2.5S122.1,37,123.5,37z
							 M153.5,37c1.4,0,2.5,1.1,2.5,2.5s-1.1,2.5-2.5,2.5s-2.5-1.1-2.5-2.5S152.1,37,153.5,37z M180.5,37c1.4,0,2.5,1.1,2.5,2.5
							s-1.1,2.5-2.5,2.5s-2.5-1.1-2.5-2.5S179.1,37,180.5,37z"/>
					</g>
					<g>
						<path id="path-1_00000055668937760311866780000005894876590118134924_" class="st4" d="M34.5,182c1.4,0,2.5,1.1,2.5,2.5
							s-1.1,2.5-2.5,2.5s-2.5-1.1-2.5-2.5S33.1,182,34.5,182z M61.5,182c1.4,0,2.5,1.1,2.5,2.5s-1.1,2.5-2.5,2.5s-2.5-1.1-2.5-2.5
							S60.1,182,61.5,182z M91.5,182c1.4,0,2.5,1.1,2.5,2.5s-1.1,2.5-2.5,2.5s-2.5-1.1-2.5-2.5S90.1,182,91.5,182z M123.5,182
							c1.4,0,2.5,1.1,2.5,2.5s-1.1,2.5-2.5,2.5s-2.5-1.1-2.5-2.5S122.1,182,123.5,182z M153.5,182c1.4,0,2.5,1.1,2.5,2.5
							s-1.1,2.5-2.5,2.5s-2.5-1.1-2.5-2.5S152.1,182,153.5,182z M180.5,182c1.4,0,2.5,1.1,2.5,2.5s-1.1,2.5-2.5,2.5
							s-2.5-1.1-2.5-2.5S179.1,182,180.5,182z M34.5,154c1.4,0,2.5,1.1,2.5,2.5s-1.1,2.5-2.5,2.5s-2.5-1.1-2.5-2.5
							S33.1,154,34.5,154z M61.5,154c1.4,0,2.5,1.1,2.5,2.5s-1.1,2.5-2.5,2.5s-2.5-1.1-2.5-2.5S60.1,154,61.5,154z M91.5,154
							c1.4,0,2.5,1.1,2.5,2.5s-1.1,2.5-2.5,2.5s-2.5-1.1-2.5-2.5S90.1,154,91.5,154z M123.5,154c1.4,0,2.5,1.1,2.5,2.5
							s-1.1,2.5-2.5,2.5s-2.5-1.1-2.5-2.5S122.1,154,123.5,154z M153.5,154c1.4,0,2.5,1.1,2.5,2.5s-1.1,2.5-2.5,2.5
							s-2.5-1.1-2.5-2.5S152.1,154,153.5,154z M180.5,154c1.4,0,2.5,1.1,2.5,2.5s-1.1,2.5-2.5,2.5s-2.5-1.1-2.5-2.5
							S179.1,154,180.5,154z M34.5,124c1.4,0,2.5,1.1,2.5,2.5s-1.1,2.5-2.5,2.5s-2.5-1.1-2.5-2.5S33.1,124,34.5,124z M61.5,124
							c1.4,0,2.5,1.1,2.5,2.5s-1.1,2.5-2.5,2.5s-2.5-1.1-2.5-2.5S60.1,124,61.5,124z M91.5,124c1.4,0,2.5,1.1,2.5,2.5
							s-1.1,2.5-2.5,2.5s-2.5-1.1-2.5-2.5S90.1,124,91.5,124z M123.5,124c1.4,0,2.5,1.1,2.5,2.5s-1.1,2.5-2.5,2.5s-2.5-1.1-2.5-2.5
							S122.1,124,123.5,124z M153.5,124c1.4,0,2.5,1.1,2.5,2.5s-1.1,2.5-2.5,2.5s-2.5-1.1-2.5-2.5S152.1,124,153.5,124z M180.5,124
							c1.4,0,2.5,1.1,2.5,2.5s-1.1,2.5-2.5,2.5s-2.5-1.1-2.5-2.5S179.1,124,180.5,124z M34.5,94c1.4,0,2.5,1.1,2.5,2.5
							S35.9,99,34.5,99S32,97.9,32,96.5S33.1,94,34.5,94z M153.5,94c1.4,0,2.5,1.1,2.5,2.5s-1.1,2.5-2.5,2.5s-2.5-1.1-2.5-2.5
							S152.1,94,153.5,94z M91.5,94c1.4,0,2.5,1.1,2.5,2.5S92.9,99,91.5,99S89,97.9,89,96.5S90.1,94,91.5,94z M180.5,94
							c1.4,0,2.5,1.1,2.5,2.5s-1.1,2.5-2.5,2.5s-2.5-1.1-2.5-2.5S179.1,94,180.5,94z M61.5,94c1.4,0,2.5,1.1,2.5,2.5
							S62.9,99,61.5,99S59,97.9,59,96.5S60.1,94,61.5,94z M123.5,94c1.4,0,2.5,1.1,2.5,2.5s-1.1,2.5-2.5,2.5s-2.5-1.1-2.5-2.5
							S122.1,94,123.5,94z M34.5,64c1.4,0,2.5,1.1,2.5,2.5S35.9,69,34.5,69S32,67.9,32,66.5S33.1,64,34.5,64z M61.5,64
							c1.4,0,2.5,1.1,2.5,2.5S62.9,69,61.5,69S59,67.9,59,66.5S60.1,64,61.5,64z M91.5,64c1.4,0,2.5,1.1,2.5,2.5S92.9,69,91.5,69
							S89,67.9,89,66.5S90.1,64,91.5,64z M123.5,64c1.4,0,2.5,1.1,2.5,2.5s-1.1,2.5-2.5,2.5s-2.5-1.1-2.5-2.5S122.1,64,123.5,64z
							 M153.5,64c1.4,0,2.5,1.1,2.5,2.5s-1.1,2.5-2.5,2.5s-2.5-1.1-2.5-2.5S152.1,64,153.5,64z M180.5,64c1.4,0,2.5,1.1,2.5,2.5
							s-1.1,2.5-2.5,2.5s-2.5-1.1-2.5-2.5S179.1,64,180.5,64z M34.5,37c1.4,0,2.5,1.1,2.5,2.5S35.9,42,34.5,42S32,40.9,32,39.5
							S33.1,37,34.5,37z M61.5,37c1.4,0,2.5,1.1,2.5,2.5S62.9,42,61.5,42S59,40.9,59,39.5S60.1,37,61.5,37z M91.5,37
							c1.4,0,2.5,1.1,2.5,2.5S92.9,42,91.5,42S89,40.9,89,39.5S90.1,37,91.5,37z M123.5,37c1.4,0,2.5,1.1,2.5,2.5s-1.1,2.5-2.5,2.5
							s-2.5-1.1-2.5-2.5S122.1,37,123.5,37z M153.5,37c1.4,0,2.5,1.1,2.5,2.5s-1.1,2.5-2.5,2.5s-2.5-1.1-2.5-2.5S152.1,37,153.5,37z
							 M180.5,37c1.4,0,2.5,1.1,2.5,2.5s-1.1,2.5-2.5,2.5s-2.5-1.1-2.5-2.5S179.1,37,180.5,37z"/>
					</g>
				</g>
			</g>
		</g>
	</g>
</g>
</svg>
