<?xml version="1.0" encoding="utf-8"?>
<!-- Generator: Adobe Illustrator 26.3.1, SVG Export Plug-In . SVG Version: 6.00 Build 0)  -->
<svg version="1.1" id="Layer_1" xmlns="http://www.w3.org/2000/svg" xmlns:xlink="http://www.w3.org/1999/xlink" x="0px" y="0px"
	 viewBox="0 0 148 148" style="enable-background:new 0 0 148 148;" xml:space="preserve">
<style type="text/css">
	.st0{opacity:0.54;}
	.st1{fill-rule:evenodd;clip-rule:evenodd;fill:#1E232E;}
	.st2{fill-rule:evenodd;clip-rule:evenodd;fill:#1E232E;fill-opacity:0.6;}
</style>
<g id="_xD83D__xDCDD_-Pages" class="st0">
	<g id="Login---V2" transform="translate(-822.000000, -197.000000)">
		<g id="top-illustration" transform="translate(469.000000, 197.000000)">
			<g>
				<path id="path-1" class="st1" d="M355,144c1.1,0,2,0.9,2,2s-0.9,2-2,2s-2-0.9-2-2S353.9,144,355,144z M382,144c1.1,0,2,0.9,2,2
					s-0.9,2-2,2s-2-0.9-2-2S380.9,144,382,144z M412,144c1.1,0,2,0.9,2,2s-0.9,2-2,2s-2-0.9-2-2S410.9,144,412,144z M442,144
					c1.1,0,2,0.9,2,2s-0.9,2-2,2s-2-0.9-2-2S440.9,144,442,144z M472,144c1.1,0,2,0.9,2,2s-0.9,2-2,2s-2-0.9-2-2S470.9,144,472,144z
					 M499,144c1.1,0,2,0.9,2,2s-0.9,2-2,2s-2-0.9-2-2S497.9,144,499,144z M355,117c1.1,0,2,0.9,2,2s-0.9,2-2,2s-2-0.9-2-2
					S353.9,117,355,117z M382,117c1.1,0,2,0.9,2,2s-0.9,2-2,2s-2-0.9-2-2S380.9,117,382,117z M412,117c1.1,0,2,0.9,2,2s-0.9,2-2,2
					s-2-0.9-2-2S410.9,117,412,117z M442,117c1.1,0,2,0.9,2,2s-0.9,2-2,2s-2-0.9-2-2S440.9,117,442,117z M472,117c1.1,0,2,0.9,2,2
					s-0.9,2-2,2s-2-0.9-2-2S470.9,117,472,117z M499,117c1.1,0,2,0.9,2,2s-0.9,2-2,2s-2-0.9-2-2S497.9,117,499,117z M355,87
					c1.1,0,2,0.9,2,2s-0.9,2-2,2s-2-0.9-2-2S353.9,87,355,87z M382,87c1.1,0,2,0.9,2,2s-0.9,2-2,2s-2-0.9-2-2S380.9,87,382,87z
					 M412,87c1.1,0,2,0.9,2,2s-0.9,2-2,2s-2-0.9-2-2S410.9,87,412,87z M442,87c1.1,0,2,0.9,2,2s-0.9,2-2,2s-2-0.9-2-2
					S440.9,87,442,87z M472,87c1.1,0,2,0.9,2,2s-0.9,2-2,2s-2-0.9-2-2S470.9,87,472,87z M499,87c1.1,0,2,0.9,2,2s-0.9,2-2,2
					s-2-0.9-2-2S497.9,87,499,87z M355,57c1.1,0,2,0.9,2,2s-0.9,2-2,2s-2-0.9-2-2S353.9,57,355,57z M472,57c1.1,0,2,0.9,2,2
					s-0.9,2-2,2s-2-0.9-2-2S470.9,57,472,57z M412,57c1.1,0,2,0.9,2,2s-0.9,2-2,2s-2-0.9-2-2S410.9,57,412,57z M499,57
					c1.1,0,2,0.9,2,2s-0.9,2-2,2s-2-0.9-2-2S497.9,57,499,57z M382,57c1.1,0,2,0.9,2,2s-0.9,2-2,2s-2-0.9-2-2S380.9,57,382,57z
					 M442,57c1.1,0,2,0.9,2,2s-0.9,2-2,2s-2-0.9-2-2S440.9,57,442,57z M355,27c1.1,0,2,0.9,2,2s-0.9,2-2,2s-2-0.9-2-2
					S353.9,27,355,27z M382,27c1.1,0,2,0.9,2,2s-0.9,2-2,2s-2-0.9-2-2S380.9,27,382,27z M412,27c1.1,0,2,0.9,2,2s-0.9,2-2,2
					s-2-0.9-2-2S410.9,27,412,27z M442,27c1.1,0,2,0.9,2,2s-0.9,2-2,2s-2-0.9-2-2S440.9,27,442,27z M472,27c1.1,0,2,0.9,2,2
					s-0.9,2-2,2s-2-0.9-2-2S470.9,27,472,27z M499,27c1.1,0,2,0.9,2,2s-0.9,2-2,2s-2-0.9-2-2S497.9,27,499,27z M355,0
					c1.1,0,2,0.9,2,2s-0.9,2-2,2s-2-0.9-2-2S353.9,0,355,0z M382,0c1.1,0,2,0.9,2,2s-0.9,2-2,2s-2-0.9-2-2S380.9,0,382,0z M412,0
					c1.1,0,2,0.9,2,2s-0.9,2-2,2s-2-0.9-2-2S410.9,0,412,0z M442,0c1.1,0,2,0.9,2,2s-0.9,2-2,2s-2-0.9-2-2S440.9,0,442,0z M472,0
					c1.1,0,2,0.9,2,2s-0.9,2-2,2s-2-0.9-2-2S470.9,0,472,0z M499,0c1.1,0,2,0.9,2,2s-0.9,2-2,2s-2-0.9-2-2S497.9,0,499,0z"/>
			</g>
			<g>
				<path id="path-1_00000135683649893989136570000013229446642195234434_" class="st2" d="M355,144c1.1,0,2,0.9,2,2s-0.9,2-2,2
					s-2-0.9-2-2S353.9,144,355,144z M382,144c1.1,0,2,0.9,2,2s-0.9,2-2,2s-2-0.9-2-2S380.9,144,382,144z M412,144c1.1,0,2,0.9,2,2
					s-0.9,2-2,2s-2-0.9-2-2S410.9,144,412,144z M442,144c1.1,0,2,0.9,2,2s-0.9,2-2,2s-2-0.9-2-2S440.9,144,442,144z M472,144
					c1.1,0,2,0.9,2,2s-0.9,2-2,2s-2-0.9-2-2S470.9,144,472,144z M499,144c1.1,0,2,0.9,2,2s-0.9,2-2,2s-2-0.9-2-2S497.9,144,499,144z
					 M355,117c1.1,0,2,0.9,2,2s-0.9,2-2,2s-2-0.9-2-2S353.9,117,355,117z M382,117c1.1,0,2,0.9,2,2s-0.9,2-2,2s-2-0.9-2-2
					S380.9,117,382,117z M412,117c1.1,0,2,0.9,2,2s-0.9,2-2,2s-2-0.9-2-2S410.9,117,412,117z M442,117c1.1,0,2,0.9,2,2s-0.9,2-2,2
					s-2-0.9-2-2S440.9,117,442,117z M472,117c1.1,0,2,0.9,2,2s-0.9,2-2,2s-2-0.9-2-2S470.9,117,472,117z M499,117c1.1,0,2,0.9,2,2
					s-0.9,2-2,2s-2-0.9-2-2S497.9,117,499,117z M355,87c1.1,0,2,0.9,2,2s-0.9,2-2,2s-2-0.9-2-2S353.9,87,355,87z M382,87
					c1.1,0,2,0.9,2,2s-0.9,2-2,2s-2-0.9-2-2S380.9,87,382,87z M412,87c1.1,0,2,0.9,2,2s-0.9,2-2,2s-2-0.9-2-2S410.9,87,412,87z
					 M442,87c1.1,0,2,0.9,2,2s-0.9,2-2,2s-2-0.9-2-2S440.9,87,442,87z M472,87c1.1,0,2,0.9,2,2s-0.9,2-2,2s-2-0.9-2-2
					S470.9,87,472,87z M499,87c1.1,0,2,0.9,2,2s-0.9,2-2,2s-2-0.9-2-2S497.9,87,499,87z M355,57c1.1,0,2,0.9,2,2s-0.9,2-2,2
					s-2-0.9-2-2S353.9,57,355,57z M472,57c1.1,0,2,0.9,2,2s-0.9,2-2,2s-2-0.9-2-2S470.9,57,472,57z M412,57c1.1,0,2,0.9,2,2
					s-0.9,2-2,2s-2-0.9-2-2S410.9,57,412,57z M499,57c1.1,0,2,0.9,2,2s-0.9,2-2,2s-2-0.9-2-2S497.9,57,499,57z M382,57
					c1.1,0,2,0.9,2,2s-0.9,2-2,2s-2-0.9-2-2S380.9,57,382,57z M442,57c1.1,0,2,0.9,2,2s-0.9,2-2,2s-2-0.9-2-2S440.9,57,442,57z
					 M355,27c1.1,0,2,0.9,2,2s-0.9,2-2,2s-2-0.9-2-2S353.9,27,355,27z M382,27c1.1,0,2,0.9,2,2s-0.9,2-2,2s-2-0.9-2-2
					S380.9,27,382,27z M412,27c1.1,0,2,0.9,2,2s-0.9,2-2,2s-2-0.9-2-2S410.9,27,412,27z M442,27c1.1,0,2,0.9,2,2s-0.9,2-2,2
					s-2-0.9-2-2S440.9,27,442,27z M472,27c1.1,0,2,0.9,2,2s-0.9,2-2,2s-2-0.9-2-2S470.9,27,472,27z M499,27c1.1,0,2,0.9,2,2
					s-0.9,2-2,2s-2-0.9-2-2S497.9,27,499,27z M355,0c1.1,0,2,0.9,2,2s-0.9,2-2,2s-2-0.9-2-2S353.9,0,355,0z M382,0c1.1,0,2,0.9,2,2
					s-0.9,2-2,2s-2-0.9-2-2S380.9,0,382,0z M412,0c1.1,0,2,0.9,2,2s-0.9,2-2,2s-2-0.9-2-2S410.9,0,412,0z M442,0c1.1,0,2,0.9,2,2
					s-0.9,2-2,2s-2-0.9-2-2S440.9,0,442,0z M472,0c1.1,0,2,0.9,2,2s-0.9,2-2,2s-2-0.9-2-2S470.9,0,472,0z M499,0c1.1,0,2,0.9,2,2
					s-0.9,2-2,2s-2-0.9-2-2S497.9,0,499,0z"/>
			</g>
		</g>
	</g>
</g>
</svg>
