<?xml version="1.0" encoding="utf-8"?>
<!-- Generator: Adobe Illustrator 26.3.1, SVG Export Plug-In . SVG Version: 6.00 Build 0)  -->
<svg version="1.1" id="Layer_1" xmlns="http://www.w3.org/2000/svg" xmlns:xlink="http://www.w3.org/1999/xlink" x="0px" y="0px"
	 viewBox="0 0 454.6 79.2" style="enable-background:new 0 0 454.6 79.2;" xml:space="preserve">
<style type="text/css">
	.st0{fill:#FF0707;}
</style>
<g id="Group_1766" transform="translate(0 -0.04)">
	<path id="Path_1945" d="M172.4,79.2c-0.4-0.8-0.7-1.8-0.8-2.7c-0.1-24.6-0.1-49.3,0-73.9c0-2.2,0.3-2.5,2.4-2.5h21.4
		c2,0,2.5,0.5,2.5,2.6v51.8h34c2.4,0,2.8,0.3,2.8,2.8v19.9c-0.1,0.7-0.4,1.5-0.8,2.1L172.4,79.2z"/>
	<path id="Path_1946" class="st0" d="M0,77.1c2.2-4.4,4.4-8.8,6.6-13.3c7.3-15.1,14.7-30.2,22.1-45.2c0.3-0.5,0.6-1,1-1.4
		c0.4,0.4,0.7,0.8,1,1.3c3.8,7.9,7.5,15.8,11.3,23.7c0.7,1.2,0.7,2.7,0,3.9c-5.1,10.1-10.1,20.2-15.1,30.3c-0.5,1.2-1.7,2-3.1,1.9
		h-22c-0.6,0-1.2-0.1-1.8-0.3V77.1z"/>
	<path id="Path_1947" d="M109.5,21.4H81.8c-1.6,0-2.2-0.9-1.6-2.4c1.3-3.2,2.6-6.4,4.1-9.4c1.1-2.4,2.3-4.8,3.5-7.3
		c0.6-1.1,1.8-1.8,3-1.6H154c2-0.2,3.9,1,4.6,2.8c1.5,3.3,2.9,6.6,4.4,10c0.8,1.9,1.6,3.8,2.3,5.8c0.5,1.4,0,2.1-1.4,2.3
		c-0.8,0-1.7,0-2.5,0h-24.9c-0.2,0-0.4,0-0.6,0.1v54.4c0,2.2-0.5,2.7-2.8,2.7h-20.9c-2.3,0-2.7-0.4-2.7-2.7L109.5,21.4L109.5,21.4z"
		/>
	<path id="Path_1948" d="M84.6,78.6H72.7c-1.4,0.1-2.8-0.7-3.2-2.1c-7.6-16.7-15.2-33.3-22.8-50c-3.4-7.5-6.8-14.9-10.2-22.4
		c0-0.1-0.1-0.2-0.2-0.2c-0.9-2.3-1.6-3.1,2-3.1c7.4,0.1,14.8,0,22.3,0c1.3-0.2,2.5,0.6,2.9,1.8C67.7,11.8,72,20.9,76.2,30
		l13.7,29.4c2.4,5.1,4.8,10.2,7.1,15.3c0.3,0.7,0.6,1.5,0.9,2.2c0.5,1.2,0.2,1.7-1.1,1.7L84.6,78.6z"/>
	<path id="Path_1949" class="st0" d="M262.8,16.8c2.8-4.9,5.6-9.8,8.3-14.8c0.3-0.8,1.2-1.3,2-1.2c1.6,0.1,3.2,0,4.9,0v31.3h-7V14.8
		l-0.3-0.1c-2.1,3.6-4.2,7.2-6.2,10.8c-0.5,0.9-1.1,1.5-2.2,1.2c-0.6-0.1-1.2-0.5-1.7-1c-1.9-3-3.7-6-5.5-9c-0.3-0.5-0.7-1.1-1.3-2
		v17.5h-6.6V0.9h5.9c0.4,0,0.8,0.6,1,1c2.8,4.9,5.7,9.8,8.5,14.7C262.7,16.8,262.9,16.9,262.8,16.8z"/>
	<path id="Path_1950" class="st0" d="M345,0.7h4.8c0.3,0,0.7,0.5,0.9,0.8c3.9,5.5,7.8,11,11.7,16.5c0.1,0.1,0.2,0.1,0.3,0.2V1h6.6
		v31.5c-1.6,0-3.2,0.1-4.8,0c-0.4,0-0.8-0.6-1.1-1.1c-3.9-5.4-7.8-10.8-11.6-16.3c-0.1,0-0.2,0-0.2-0.1v17.3h-6.6L345,0.7z"/>
	<path id="Path_1951" class="st0" d="M297.8,16c0.2-2,0.5-4,0.9-5.9c2-7.7,7.8-10.5,14.9-9.7c5.8,0.7,9.2,4.1,10.6,9.6
		c1.2,4.3,1.2,8.8,0,13.1c-1.9,7.4-7.7,10.5-14.9,9.6c-6.4-0.8-10.2-5-11.2-11.6C298,19.6,298,18.1,297.8,16z M305.1,16.3
		c0.1,2.5,0.6,4.9,1.6,7.2c0.9,1.9,2.8,3.1,4.9,3c2.2,0.1,4.2-1.3,4.9-3.4c1.6-4.2,1.5-8.8-0.1-13c-0.7-2.2-2.8-3.6-5-3.5
		c-2.4-0.1-4.5,1.5-5.1,3.8C305.8,12.4,305.4,14.4,305.1,16.3z"/>
	<path id="Path_1952" class="st0" d="M408.4,13.2v6.4h-9.5c-1.2,0-1.7,0.3-1.6,1.5c0.1,1.5,0,3,0,4.7h12.3v6.4h-19.2V1h18.9v6.2
		h-10.7c-1.1,0-1.5,0.4-1.4,1.4c0.1,1.5-0.4,3.4,0.4,4.3s2.7,0.3,4.1,0.3C404,13.3,406.1,13.2,408.4,13.2z"/>
	<path id="Path_1953" class="st0" d="M426.8,0.9h7.6c0.5,0.1,0.9,0.4,1.2,0.9c1.7,3.4,3.4,6.8,5.1,10.2c0.1,0.2,0.3,0.5,0.5,0.9
		c1.8-3.8,3.6-7.4,5.3-11c0.2-0.6,0.9-1,1.6-1h6.6c-0.4,0.7-0.6,1.4-0.9,1.9c-3,5.6-6,11.2-8.9,16.9c-0.4,0.7-0.5,1.5-0.5,2.3
		c-0.1,3.4,0,6.8,0,10.2h-7c0-2.5-0.1-5,0-7.5c0.1-2.7-0.5-5.3-1.9-7.6c-2.7-4.9-5.3-9.9-7.9-14.9C427.2,1.8,427,1.5,426.8,0.9z"/>
	<path id="Path_1954" d="M350.1,71.2V49.5h3.9v28.9c-3.3,1.3-4.7-1.1-6.3-3.3c-4.6-6.2-9.2-12.4-13.9-18.6c-0.2-0.2-0.4-0.3-0.6-0.5
		v22.5h-3.7v-29h3.5c0.3,0,0.6,0.3,0.9,0.6c5.2,6.8,10.3,13.6,15.5,20.4C349.6,70.8,349.9,71,350.1,71.2z"/>
	<path id="Path_1955" d="M436.7,67v11.4h-4V49.7c4.9,0,9.9-0.4,14.7,0.1s7.3,5.5,6.5,10.1c-0.6,3.4-2.3,5.7-7.2,7l7.9,11.7h-4.3
		c-0.3,0-0.7-0.4-0.9-0.7c-2.2-3.2-4.4-6.5-6.5-9.8c-0.3-0.7-1.1-1.1-1.9-1C439.7,67,438.3,67,436.7,67z M436.7,63.5
		c2.9,0,5.5,0.2,8.1,0c2.8,0,5-2.2,5.1-5c0.3-2.6-1.5-4.9-4-5.3c-3.1-0.3-6.2-0.5-9.2-0.5L436.7,63.5L436.7,63.5z"/>
	<path id="Path_1956" d="M273.6,49.5c4.4,0,8.8-0.2,13,0c4.2,0,7.7,3.1,8.1,7.2c0.6,5.7-2,9-7.2,10.1l7.9,11.7c-1.5,0-2.9,0.1-4.2,0
		c-0.4,0-0.9-0.5-1.1-0.9c-2.2-3.2-4.4-6.5-6.6-9.8c-0.2-0.3-0.6-0.8-1-0.8c-1.7-0.1-3.4,0-5.1,0v11.4h-3.7L273.6,49.5z M277.4,63.6
		c2.9,0,5.7,0.1,8.5,0c2.4-0.2,4.4-2,4.8-4.4c0.3-3.2-1.1-5.6-3.9-5.9c-3.1-0.2-6.2-0.2-9.4-0.1L277.4,63.6L277.4,63.6z"/>
	<path id="Path_1957" d="M314.8,49.5c4,9.7,8,19.4,12,29c-0.1,0.1-0.2,0.1-0.4,0.1c-5.1-0.1-3.7,1.1-5.7-3.8c-1-2.6-1-2.6-3.7-2.6
		h-10.6c-0.8-0.1-1.6,0.4-1.8,1.2c-0.5,1.4-1.1,2.8-1.7,4.2c-0.1,0.7-0.8,1.1-1.5,1c-1.1-0.1-2.2,0-3.6,0l2.9-7
		c2.8-6.8,5.7-13.6,8.4-20.4c0.6-1.3,1.2-2.2,2.9-1.9C313,49.5,313.9,49.5,314.8,49.5z M318.4,68.4l-5.9-14.7l-6,14.7H318.4z"/>
	<path id="Path_1958" d="M428,75.1v3.4h-19.5V49.5H428v3.3h-15.5v9h15.2v3.5h-15.2v9.9H428z"/>
	<path id="Path_1959" d="M380,53.1c-0.5,0.7-1.1,1.3-1.5,2c-0.5,0.6-1.1,0.7-1.9,0c-2.8-2.5-6.6-3.3-10.1-2.2
		c-1.4,0.3-2.5,1.3-3,2.6c-0.6,1.9-0.3,3.2,1.6,4c2.5,1,5.1,1.7,7.6,2.6c1.9,0.7,3.6,1.5,5.3,2.6c2.8,1.8,3,4.8,2.4,7.7
		c-0.6,3.2-3.2,5.7-6.5,6.1c-4.7,0.9-9.5,0.8-13.5-2.2c-0.8-0.6-1.5-1.2-2.3-1.9l2-2.6c2.1,1.3,4.4,2.4,6.8,3.3
		c2.1,0.4,4.3,0.4,6.5,0c1.9-0.5,3.2-2.1,3.2-4.1c0-1.9-1.3-3.6-3.2-4.1c-2.8-0.9-5.7-1.7-8.5-2.7c-2.4-0.6-4.4-2.3-5.4-4.6
		c-1.1-3.3,0.2-7,3.2-8.8C367.2,47.8,376.2,48.5,380,53.1z"/>
	<path id="Path_1960" d="M389,78.5h-4V49.5h19.5v3.3H389v9h15.2v3.4H389V78.5z"/>
	<path id="Path_1961" d="M260.5,78.5h-4V52.9h-9.2v-3.4h22.4v3.3h-9.1L260.5,78.5z"/>
</g>
</svg>
