<svg xmlns="http://www.w3.org/2000/svg" width="46.401" height="44.826" viewBox="0 0 46.401 44.826">
  <g id="Group_290" data-name="Group 290" transform="translate(-1681.219 -33.587)">
    <g id="user" transform="translate(1681.219 33.587)">
      <path id="Path_2584" data-name="Path 2584" d="M17.168,36.267,10.506,39.9a5.986,5.986,0,0,0-1.069.761,22.312,22.312,0,0,0,28.667.074,5.91,5.91,0,0,0-1.174-.787L29.8,36.383a2.72,2.72,0,0,1-1.5-2.433v-2.8a10.774,10.774,0,0,0,.675-.868,16.414,16.414,0,0,0,2.217-4.469,2.241,2.241,0,0,0,1.589-2.132V20.7a2.23,2.23,0,0,0-.746-1.655V14.722S32.915,8,23.813,8,15.6,14.722,15.6,14.722V19.04a2.227,2.227,0,0,0-.746,1.655v2.987a2.24,2.24,0,0,0,1.033,1.88,14.825,14.825,0,0,0,2.7,5.588v2.73A2.723,2.723,0,0,1,17.168,36.267Z" transform="translate(-1.486 -1.26)" fill="#27619e"/>
      <g id="Group_289" data-name="Group 289" transform="translate(0 0)">
        <path id="Path_2585" data-name="Path 2585" d="M22.708,0A22.312,22.312,0,0,0,7.96,39.395a5.933,5.933,0,0,1,1.059-.753l6.662-3.634A2.721,2.721,0,0,0,17.1,32.62V29.89A14.811,14.811,0,0,1,14.4,24.3a2.241,2.241,0,0,1-1.033-1.88V19.435a2.23,2.23,0,0,1,.746-1.655V13.461S13.224,6.74,22.325,6.74s8.214,6.721,8.214,6.721v4.319a2.227,2.227,0,0,1,.746,1.655v2.987A2.241,2.241,0,0,1,29.7,24.554a16.414,16.414,0,0,1-2.217,4.469,10.774,10.774,0,0,1-.675.868v2.8a2.719,2.719,0,0,0,1.5,2.433l7.133,3.566a5.94,5.94,0,0,1,1.171.785A22.321,22.321,0,0,0,22.708,0Z" transform="translate(0 0)" fill="#fff"/>
      </g>
    </g>
    <g id="success" transform="translate(1711.496 62.289)">
      <circle id="Ellipse_39" data-name="Ellipse 39" cx="8" cy="8" r="8" transform="translate(0.124 0.124)" fill="#25ae88"/>
      <path id="Path_2586" data-name="Path 2586" d="M18.32,15l-3.889,4.376L12,17.431" transform="translate(-7.035 -9.063)" fill="none" stroke="#fff" stroke-linecap="round" stroke-linejoin="round" stroke-miterlimit="10" stroke-width="2"/>
    </g>
  </g>
</svg>
