<svg id="Group_1745" data-name="Group 1745" xmlns="http://www.w3.org/2000/svg" xmlns:xlink="http://www.w3.org/1999/xlink" width="24.239" height="31.815" viewBox="0 0 24.239 31.815">
  <defs>
    <clipPath id="clip-path">
      <rect id="Rectangle_492" data-name="Rectangle 492" width="24.239" height="31.815" fill="#828282"/>
    </clipPath>
  </defs>
  <g id="Group_1744" data-name="Group 1744" clip-path="url(#clip-path)">
    <path id="Path_2848" data-name="Path 2848" d="M21.815,31.816H2.424a.393.393,0,0,0-.082-.042A2.788,2.788,0,0,1,0,28.823Q0,15.9,0,2.979A2.8,2.8,0,0,1,2.974,0H14.916V.373q0,3,0,6a2.8,2.8,0,0,0,2.968,2.954q3,0,6,0h.358v7.7q0,5.948,0,11.9a2.8,2.8,0,0,1-1.861,2.735c-.183.065-.374.11-.562.165m-9.7-16.84q2.747,0,5.495,0a.945.945,0,0,0,.936-.537.925.925,0,0,0-.886-1.327c-1.718-.006-3.436,0-5.153,0q-2.949,0-5.9,0a.938.938,0,0,0-.914.522.927.927,0,0,0,.895,1.342c1.842,0,3.684,0,5.526,0m0,3.728q2.747,0,5.495,0a.944.944,0,0,0,.935-.539.925.925,0,0,0-.89-1.325c-1.956-.005-3.912,0-5.867,0q-2.592,0-5.184,0A.934.934,0,1,0,6.595,18.7c1.842,0,3.684,0,5.526,0m.032,1.864c-1.842,0-3.684,0-5.526,0a.948.948,0,0,0-.951.564.931.931,0,0,0,.932,1.3q2.934.005,5.867,0,2.577,0,5.153,0a.934.934,0,1,0,.019-1.864c-1.832,0-3.663,0-5.495,0m-1.9,3.728c-1.21,0-2.421-.008-3.631.007a1.323,1.323,0,0,0-.613.165.872.872,0,0,0-.381,1,.927.927,0,0,0,.949.694q3.631,0,7.262,0a.952.952,0,0,0,1.075-.94c-.005-.564-.429-.923-1.092-.923H10.254" transform="translate(0 -0.001)" fill="#828282"/>
    <path id="Path_2849" data-name="Path 2849" d="M208.982,14.68h-5.7a.965.965,0,0,1-1.1-1.1q0-2.731,0-5.462V7.877l6.808,6.8" transform="translate(-185.394 -7.223)" fill="#828282"/>
  </g>
</svg>
