<svg id="Group_1796" data-name="Group 1796" xmlns="http://www.w3.org/2000/svg" xmlns:xlink="http://www.w3.org/1999/xlink" width="22.16" height="22" viewBox="0 0 22.16 22">
  <defs>
    <clipPath id="clip-path">
      <rect id="Rectangle_829" data-name="Rectangle 829" width="22.16" height="22" fill="none"/>
    </clipPath>
  </defs>
  <g id="Group_1795" data-name="Group 1795" clip-path="url(#clip-path)">
    <path id="Path_2820" data-name="Path 2820" d="M21.735,8.049A11.072,11.072,0,0,0,.167,9.226C.1,9.63.055,10.037,0,10.443v1.342c.013.063.027.125.038.188a17.187,17.187,0,0,0,.35,2,10.885,10.885,0,0,0,8.269,7.94A2.578,2.578,0,0,0,11.943,19.3q0-1.7,0-3.4v-.212h0L10.2,15.672a.5.5,0,0,1,.011.08c0,1.226.008,2.452,0,3.678a.859.859,0,0,1-1.1.816,9.359,9.359,0,1,1,10.9-6.4A9.23,9.23,0,0,1,14.771,19.7a.866.866,0,1,0,.7,1.578A11.12,11.12,0,0,0,21.735,8.049" transform="translate(0 -0.001)" fill="rgba(60,60,67,0.6)"/>
    <path id="Path_2821" data-name="Path 2821" d="M123.78,105.537a4.192,4.192,0,0,1-1.82-.907,4.134,4.134,0,0,1-1.494-3.164c-.015-.743,0-1.486,0-2.228a.858.858,0,0,1,.9-.915c.237,0,.474,0,.742,0v-.243q0-.887,0-1.774c0-.669.32-1.056.871-1.054s.86.39.86,1.043q0,.887,0,1.774v.242h1.731v-.235c0-.635,0-1.269,0-1.9a.866.866,0,1,1,1.73-.005c0,.706,0,1.413,0,2.155h.648a.868.868,0,0,1,.953.951q0,1.038,0,2.077a4.212,4.212,0,0,1-3.268,4.17c-.027.007-.054.019-.107.038m-3.33-5.5c0,.485-.008.945,0,1.4a2.485,2.485,0,0,0,4.719,1.036,5.941,5.941,0,0,0,.258-2.441Z" transform="translate(-113.495 -89.745)" fill="#87c0ff"/>
  </g>
</svg>
