<svg xmlns="http://www.w3.org/2000/svg" xmlns:xlink="http://www.w3.org/1999/xlink" width="40" height="68.742" viewBox="0 0 40 68.742">
  <defs>
    <clipPath id="clip-path">
      <rect id="Rectangle_203" data-name="Rectangle 203" width="39.743" height="39.742" fill="none"/>
    </clipPath>
  </defs>
  <g id="Group_413" data-name="Group 413" transform="translate(-422 -763.258)">
    <ellipse id="Ellipse_136" data-name="Ellipse 136" cx="18" cy="2" rx="18" ry="2" transform="translate(426 828)" fill="rgba(161,161,161,0.31)" opacity="0.43"/>
    <g id="Group_378" data-name="Group 378" transform="translate(422 763.258)">
      <g id="Group_377" data-name="Group 377" clip-path="url(#clip-path)">
        <path id="Path_2794" data-name="Path 2794" d="M0,93.771A5.781,5.781,0,0,1,1.05,91.56a4.087,4.087,0,0,1,5.2-1.054,3.379,3.379,0,0,1,.44.316,1.161,1.161,0,0,1-1.369,1.87,1.919,1.919,0,0,0-2.971,1.473A1.389,1.389,0,0,0,2.891,95.5a2.84,2.84,0,0,0,2.58.421,3.494,3.494,0,0,0,1.806-1.139,11.034,11.034,0,0,1,8.448-4.018c3.219-.058,6.44-.015,9.66-.01.322,0,.645.066.967.059a.437.437,0,0,0,.329-.205A5.77,5.77,0,0,1,31.5,86.9a3.64,3.64,0,0,1,.425-.031,1.2,1.2,0,0,1,1.362,1.318c0,1.888.007,3.776,0,5.664a1.216,1.216,0,0,0,.274.764c.6.839,1.163,1.7,1.709,2.576.138.22.243.341.522.334.866-.02,1.733-.011,2.6-.006a1.208,1.208,0,0,1,1.356,1.367q0,3.2,0,6.4A1.2,1.2,0,0,1,38.4,106.63c-.892,0-1.785.008-2.677,0a.418.418,0,0,0-.439.279,11.21,11.21,0,0,1-7.41,6.111.322.322,0,0,0-.286.373c.009.905-.02,1.811.011,2.716a1.381,1.381,0,0,1-.9,1.5H21.5a1.338,1.338,0,0,1-.921-1.481c.024-.386,0-.775,0-1.162v-1.533H18.251c0,.911-.031,1.789.01,2.664a1.4,1.4,0,0,1-.874,1.513H12.109a1.461,1.461,0,0,1-.866-1.561c.041-1.084,0-2.171.018-3.257a.542.542,0,0,0-.356-.585A11.263,11.263,0,0,1,4.8,99.973c.1-.536.25-1.063.377-1.594-.178,0-.332,0-.486,0A4.368,4.368,0,0,1,.05,94.991c0-.02-.033-.037-.05-.055V93.771m30.953-4.355c-.111.033-.161.043-.205.063-.106.047-.213.094-.314.151A3.478,3.478,0,0,0,28.657,92.3a1.174,1.174,0,0,1-1.507,1.033,17.057,17.057,0,0,0-2.423-.245c-2.858-.029-5.717-.013-8.576-.009-.374,0-.75.019-1.123.055A8.971,8.971,0,0,0,7.8,105.9a8.818,8.818,0,0,0,4.8,4.512,1.272,1.272,0,0,1,.982,1.47q0,1.494,0,2.988c0,.125.011.25.017.379h2.315c0-.969,0-1.912,0-2.854a1.191,1.191,0,0,1,1.341-1.336c1.294,0,2.589.037,3.88-.012,1.354-.051,1.864.373,1.787,1.8-.043.8-.008,1.6-.008,2.407h2.338c0-.981,0-1.937,0-2.893a1.237,1.237,0,0,1,1.241-1.427,8.731,8.731,0,0,0,3.412-1.306,8.921,8.921,0,0,0,3.555-4.38,1.216,1.216,0,0,1,1.378-.938c.556,0,1.112,0,1.669,0h.88V99.871c-.141-.007-.266-.018-.392-.019-.7,0-1.4,0-2.1,0a1.254,1.254,0,0,1-1.452-1A8.119,8.119,0,0,0,31.6,95.927a2.066,2.066,0,0,1-.655-1.654c.034-1.6.011-3.2.011-4.856" transform="translate(0 -77.859)" fill="#a1a1a1"/>
        <path id="Path_2795" data-name="Path 2795" d="M155.818,5.389A5.375,5.375,0,1,1,150.458,0a5.365,5.365,0,0,1,5.36,5.389m-2.337-.01a3.039,3.039,0,1,0-3.034,3.03,3.037,3.037,0,0,0,3.034-3.03" transform="translate(-130.026 0)" fill="#003974"/>
        <path id="Path_2796" data-name="Path 2796" d="M148.123,171.543c-1.512,0-3.025,0-4.537,0a1.146,1.146,0,0,1-1.134-.83,1.1,1.1,0,0,1,.473-1.281,1.531,1.531,0,0,1,.728-.209q4.479-.021,8.958-.006a1.168,1.168,0,1,1-.028,2.328c-1.486,0-2.973,0-4.459,0" transform="translate(-127.635 -151.663)" fill="#003974"/>
      </g>
    </g>
  </g>
</svg>
