<svg id="Group_1789" data-name="Group 1789" xmlns="http://www.w3.org/2000/svg" xmlns:xlink="http://www.w3.org/1999/xlink" width="16.17" height="21.187" viewBox="0 0 16.17 21.187">
  <defs>
    <clipPath id="clip-path">
      <rect id="Rectangle_821" data-name="Rectangle 821" width="16.17" height="21.187" fill="rgba(60,60,67,0.6)"/>
    </clipPath>
  </defs>
  <g id="Group_1788" data-name="Group 1788" clip-path="url(#clip-path)">
    <path id="Path_2810" data-name="Path 2810" d="M10.815,0a8.026,8.026,0,0,1,.723.494c.5.428.991.878,1.485,1.319.04.036.084.068.136.109.449-.4.892-.791,1.337-1.182a.964.964,0,0,1,1.074-.2.941.941,0,0,1,.592.829c.007.075.006.152.006.227q0,8.989,0,17.977a1.134,1.134,0,0,1-.259.824.979.979,0,0,1-1.41.043c-.4-.341-.786-.693-1.179-1.04-.051-.045-.1-.089-.166-.143-.056.047-.109.089-.159.134q-.818.731-1.635,1.462a1,1,0,0,1-1.478.007c-.542-.48-1.08-.964-1.621-1.446-.056-.05-.114-.1-.184-.155L7,20.229c-.242.216-.481.434-.725.648a1,1,0,0,1-1.447-.005c-.547-.484-1.091-.974-1.636-1.461-.051-.046-.1-.09-.171-.149-.058.049-.115.1-.169.143-.42.368-.827.753-1.262,1.1a.969.969,0,0,1-1.549-.518A1.54,1.54,0,0,1,0,19.6Q0,10.59,0,1.58A.993.993,0,0,1,1.687.753L2.85,1.781c.051.045.1.089.167.143l.713-.637c.3-.266.588-.544.9-.795C4.855.309,5.11.162,5.352,0h.372c.235.15.48.286.7.452s.392.346.588.52l1.07.953C8.6,1.463,9.1,1.005,9.609.569c.247-.21.527-.381.792-.57ZM.995,19.724c.459-.407.868-.786,1.3-1.14a1.5,1.5,0,0,1,.555-.292.956.956,0,0,1,.9.289c.593.536,1.191,1.066,1.8,1.608.083-.073.162-.139.238-.208.53-.473,1.057-.949,1.589-1.419a.992.992,0,0,1,1.416,0c.145.127.288.257.432.386l1.391,1.241c.048-.04.085-.07.12-.1.571-.51,1.138-1.024,1.713-1.529a.986.986,0,0,1,1.4-.007c.215.183.423.375.635.562l.675.592V1.47c-.46.408-.884.792-1.317,1.166a.982.982,0,0,1-1.384,0c-.2-.175-.4-.358-.6-.537L10.617.994l-.243.215q-.787.7-1.574,1.406a.994.994,0,0,1-1.432,0c-.542-.481-1.08-.965-1.62-1.447-.065-.058-.133-.114-.2-.173-.61.545-1.2,1.081-1.8,1.611A1,1,0,0,1,2.3,2.613c-.39-.339-.775-.685-1.163-1.027-.037-.033-.081-.058-.139-.1Z" transform="translate(0 0.001)" fill="rgba(60,60,67,0.6)"/>
    <path id="Path_2811" data-name="Path 2811" d="M91.95,113.467h.776a.333.333,0,0,1,.362.364q0,.457,0,.914a.332.332,0,0,1-.363.364H88.2a.333.333,0,0,1-.367-.371q0-.457,0-.914a.332.332,0,0,1,.358-.358h.8c-.041-.033-.063-.052-.085-.069a2.578,2.578,0,0,1-1.074-2.072,2.351,2.351,0,0,1,.279-1.061,9.76,9.76,0,0,1,1.293-1.967c.256-.317.527-.621.8-.926a.328.328,0,0,1,.506-.012,13.718,13.718,0,0,1,1.94,2.589,3.205,3.205,0,0,1,.418,1.106,2.391,2.391,0,0,1-.323,1.527,2.591,2.591,0,0,1-.734.82c-.019.014-.038.029-.056.044,0,0,0,.006,0,.021m.031-.941a1.846,1.846,0,0,0,.428-1.43,2.675,2.675,0,0,0-.315-.8,11.585,11.585,0,0,0-1.22-1.747c-.133-.163-.272-.322-.419-.5-.254.313-.5.608-.739.913a8.769,8.769,0,0,0-1.054,1.658,1.734,1.734,0,0,0,.22,1.836.512.512,0,0,1,.034.069l.029-.023a1.588,1.588,0,0,1,.232-.85,6.983,6.983,0,0,1,1.02-1.384.327.327,0,0,1,.532,0c.27.326.544.652.787,1a2.033,2.033,0,0,1,.466,1.252m-1.516-1.561c-.048.057-.088.1-.126.15a4.988,4.988,0,0,0-.667,1.018.663.663,0,0,0-.052.439.833.833,0,0,0,.632.658.808.808,0,0,0,.874-.286.75.75,0,0,0,.1-.879,6.45,6.45,0,0,0-.758-1.1m1.961,3.166H88.5v.317h3.93Z" transform="translate(-82.375 -100.584)" fill="#87c0ff"/>
  </g>
</svg>
