<svg xmlns="http://www.w3.org/2000/svg" xmlns:xlink="http://www.w3.org/1999/xlink" width="36" height="66" viewBox="0 0 36 66">
  <defs>
    <clipPath id="clip-path">
      <rect id="Rectangle_201" data-name="Rectangle 201" width="33.52" height="42" fill="none"/>
    </clipPath>
  </defs>
  <g id="Group_411" data-name="Group 411" transform="translate(-424 -360)">
    <g id="Group_373" data-name="Group 373" transform="translate(425 360)">
      <g id="Group_372" data-name="Group 372" clip-path="url(#clip-path)">
        <path id="Path_2784" data-name="Path 2784" d="M15.613,187.619c-.672-.1-1.353-.164-2.013-.315-6.949-1.589-11.356-5.833-13.148-12.73a15.742,15.742,0,0,1-.415-3.447c-.065-2.09-.025-4.183-.02-6.275a1.241,1.241,0,1,1,2.478.026c0,1.969-.034,3.938.009,5.907a13.969,13.969,0,0,0,7.239,12.468,14.151,14.151,0,0,0,16.572-1.8c.111-.1.219-.206.332-.305a1.26,1.26,0,0,1,1.8.04,1.216,1.216,0,0,1-.126,1.789,32.059,32.059,0,0,1-3.246,2.417,15.4,15.4,0,0,1-6.894,2.164,1.682,1.682,0,0,0-.272.068Z" transform="translate(0 -145.619)" fill="#003974"/>
        <path id="Path_2785" data-name="Path 2785" d="M47.518,21.056c0,1.545.02,3.09,0,4.635a16.237,16.237,0,0,1-1.737,7.02,1.215,1.215,0,0,1-1.213.747,1.069,1.069,0,0,1-1.071-.8,1.734,1.734,0,0,1,.073-1.057,14.9,14.9,0,0,0,1.358-4.616,16.773,16.773,0,0,0,.112-1.8c.011-2.8.071-5.608-.009-8.409-.172-6.016-2.963-10.444-8.412-13.008A14.161,14.161,0,0,0,18.257,9.914c-.065.12-.124.244-.2.36a1.243,1.243,0,0,1-2.18-1.193,15.516,15.516,0,0,1,2.631-3.744A16.489,16.489,0,0,1,31.56.014,16.7,16.7,0,0,1,47.261,13.9a28.032,28.032,0,0,1,.253,3.591c.041,1.188.009,2.379.009,3.568Z" transform="translate(-14.014 0)" fill="#003974"/>
        <path id="Path_2786" data-name="Path 2786" d="M42.249,60.548c0-1.872-.136-3.756.026-5.613A12,12,0,0,1,51.11,44.5a1.236,1.236,0,0,1,1.567.876,1.272,1.272,0,0,1-1.016,1.562A9.446,9.446,0,0,0,45.1,53.423a7.83,7.83,0,0,0-.386,2.25c-.039,3.321-.088,6.645.008,9.964a9.548,9.548,0,0,0,7.976,8.8c.526.076,1.059.115,1.59.148a1.244,1.244,0,1,1-.071,2.484A12.114,12.114,0,0,1,42.323,66.732a15.765,15.765,0,0,1-.141-1.96c-.021-1.408-.006-2.816-.006-4.224h.074" transform="translate(-37.549 -39.577)" fill="rgba(161,161,161,0.57)"/>
        <path id="Path_2787" data-name="Path 2787" d="M172.718,59.444a50.776,50.776,0,0,1-.033,5.571,11.774,11.774,0,0,1-7.73,10.126,1.229,1.229,0,0,1-1.655-.7,1.262,1.262,0,0,1,.773-1.629,9.586,9.586,0,0,0,6.145-7.866,5.67,5.67,0,0,0,.056-.858c0-3.117.057-6.235-.012-9.35a9.559,9.559,0,0,0-7.512-9.086,1.284,1.284,0,0,1-1.112-1,1.249,1.249,0,0,1,1.62-1.444,11.546,11.546,0,0,1,4.219,1.828,11.976,11.976,0,0,1,5.3,9.9c.046,1.5.007,3.007.007,4.511h-.069" transform="translate(-143.893 -38.433)" fill="rgba(161,161,161,0.57)"/>
        <path id="Path_2788" data-name="Path 2788" d="M100.239,94.7c0,1.162,0,2.324,0,3.487a1.25,1.25,0,1,1-2.487.014c0-2.188.008-4.375,0-6.563a4.892,4.892,0,1,0-9.782-.036c-.017,1.8,0,3.61-.007,5.414A1.224,1.224,0,0,1,86.7,98.328a1.185,1.185,0,0,1-1.209-1.11c0-2.227-.1-4.465.087-6.679a7.237,7.237,0,0,1,6.556-6.353,7.345,7.345,0,0,1,7.978,6.011,7.95,7.95,0,0,1,.125,1.385c.018,1.039.006,2.078.006,3.117" transform="translate(-76.094 -74.934)" fill="rgba(161,161,161,0.57)"/>
        <path id="Path_2789" data-name="Path 2789" d="M98.241,241.12a7.192,7.192,0,0,1-6.016-3.806,1.253,1.253,0,1,1,2.165-1.236,4.9,4.9,0,0,0,9.009-1.064,1.255,1.255,0,0,1,1.337-1.023,1.21,1.21,0,0,1,1.125,1.062,1.643,1.643,0,0,1-.053.6,7.519,7.519,0,0,1-7.568,5.462" transform="translate(-81.92 -208.341)" fill="rgba(161,161,161,0.57)"/>
        <path id="Path_2790" data-name="Path 2790" d="M144.072,151.286c0,1.394,0,2.787,0,4.181a1.247,1.247,0,1,1-2.48,0q0-4.181,0-8.362a1.247,1.247,0,1,1,2.48,0c0,1.394,0,2.787,0,4.181" transform="translate(-126.07 -129.756)" fill="rgba(161,161,161,0.57)"/>
      </g>
    </g>
    <ellipse id="Ellipse_134" data-name="Ellipse 134" cx="18" cy="2" rx="18" ry="2" transform="translate(424 422)" fill="rgba(161,161,161,0.31)" opacity="0.43"/>
  </g>
</svg>
