<svg id="Group_1798" data-name="Group 1798" xmlns="http://www.w3.org/2000/svg" xmlns:xlink="http://www.w3.org/1999/xlink" width="19.165" height="21.07" viewBox="0 0 19.165 21.07">
  <defs>
    <clipPath id="clip-path">
      <rect id="Rectangle_830" data-name="Rectangle 830" width="19.165" height="21.07" fill="rgba(60,60,67,0.6)"/>
    </clipPath>
  </defs>
  <g id="Group_1797" data-name="Group 1797" clip-path="url(#clip-path)">
    <path id="Path_2822" data-name="Path 2822" d="M9.549,0A3.354,3.354,0,0,1,9.9.28Q12.021,2.5,14.142,4.731a.747.747,0,0,1,.223.552c-.005,1.2,0,2.4,0,3.6v.208c.4.139.789.244,1.154.409a5.808,5.808,0,0,1,3.547,4.479,5.817,5.817,0,0,1-2.24,5.812,5.746,5.746,0,0,1-3.184,1.252.528.528,0,0,0-.1.028h-.905a.631.631,0,0,0-.114-.035,5.945,5.945,0,0,1-4.454-2.726.344.344,0,0,0-.332-.171q-2.612.007-5.225,0a3.092,3.092,0,0,1-.653-.06A2.326,2.326,0,0,1,0,15.731q0-4.587,0-9.174C0,5.172,0,3.787,0,2.4A2.246,2.246,0,0,1,1.012.44,5.771,5.771,0,0,1,2.059,0ZM8.307,11.379H3.767a2.077,2.077,0,0,1-.226-.007.433.433,0,0,1-.024-.865,1.471,1.471,0,0,1,.226-.009c1.7,0,3.4,0,5.1,0a.745.745,0,0,0,.5-.171,5.933,5.933,0,0,1,3.535-1.324c.195-.007.39,0,.584,0V5.579h-.242c-.706,0-1.413,0-2.119,0a2.572,2.572,0,0,1-.631-.066A1.908,1.908,0,0,1,9.008,3.572c-.006-.823,0-1.646,0-2.469C9.006,1.032,9,.96,9,.885c-.073,0-.12-.01-.167-.01q-3.189,0-6.379,0a1.766,1.766,0,0,0-.466.06A1.487,1.487,0,0,0,.877,2.5q0,6.574,0,13.148a1.972,1.972,0,0,0,.06.508A1.466,1.466,0,0,0,2.5,17.26q2.4,0,4.794,0c.065,0,.129-.006.222-.011a6.191,6.191,0,0,1-.409-1.8,6.437,6.437,0,0,1,.142-1.827H3.73c-.407,0-.612-.151-.61-.445s.2-.433.6-.433c1.2,0,2.4,0,3.6,0a.282.282,0,0,0,.309-.192c.114-.255.263-.5.4-.739.077-.134.166-.262.277-.435M13.119,20.2a5.16,5.16,0,1,0-5.147-5.165A5.169,5.169,0,0,0,13.119,20.2M12.877,4.7l-3-3.152c0,.748-.014,1.433,0,2.117a1.039,1.039,0,0,0,1.059,1.034c.623.009,1.246,0,1.932,0" transform="translate(0)" fill="rgba(60,60,67,0.6)"/>
    <path id="Path_2823" data-name="Path 2823" d="M78.489,202.644c-.713,0-1.425,0-2.138,0a.439.439,0,0,1-.494-.389.419.419,0,0,1,.377-.475,1.77,1.77,0,0,1,.226-.009h4.153c.348,0,.558.169.556.439s-.211.435-.561.435H78.489" transform="translate(-72.733 -193.467)" fill="rgba(60,60,67,0.6)"/>
    <path id="Path_2824" data-name="Path 2824" d="M274.186,264.178c.013.308-.135.5-.394.524s-.445-.16-.478-.5a1.123,1.123,0,0,0-1.877-.754,1.081,1.081,0,0,0-.293,1.2,1.1,1.1,0,0,0,1.038.74,2.027,2.027,0,0,1,1.332.512,1.988,1.988,0,0,1-.67,3.376c-.192.066-.262.148-.24.341a.88.88,0,0,1-.025.284.421.421,0,0,1-.418.327.415.415,0,0,1-.406-.316,1.728,1.728,0,0,1-.03-.407c0-.124-.04-.175-.157-.217a1.962,1.962,0,0,1-1.368-1.8.443.443,0,0,1,.34-.513.423.423,0,0,1,.488.246,1.269,1.269,0,0,1,.06.3,1.114,1.114,0,0,0,1.141.993,1.13,1.13,0,0,0,1.087-1.079,1.1,1.1,0,0,0-.98-1.149,2.634,2.634,0,0,1-1.14-.3,1.993,1.993,0,0,1,.31-3.593c.154-.061.229-.117.221-.3a.455.455,0,0,1,.3-.49.412.412,0,0,1,.488.162.732.732,0,0,1,.09.349c0,.146.052.2.186.237a1.978,1.978,0,0,1,1.4,1.812" transform="translate(-259.076 -250.83)" fill="#87c0ff"/>
  </g>
</svg>
