<svg id="Group_1743" data-name="Group 1743" xmlns="http://www.w3.org/2000/svg" xmlns:xlink="http://www.w3.org/1999/xlink" width="22.229" height="15.267" viewBox="0 0 22.229 15.267">
  <defs>
    <clipPath id="clip-path">
      <rect id="Rectangle_489" data-name="Rectangle 489" width="22.229" height="15.267" fill="rgba(60,60,67,0.6)"/>
    </clipPath>
  </defs>
  <g id="Group_1742" data-name="Group 1742" clip-path="url(#clip-path)">
    <path id="Path_1917" data-name="Path 1917" d="M22.229,13.452a5.39,5.39,0,0,1-.424.978,2,2,0,0,1-1.766.836H14.2q-5.99,0-11.98,0A2.127,2.127,0,0,1,.434,14.46,2.038,2.038,0,0,1,0,13.169Q0,7.635,0,2.1A2.015,2.015,0,0,1,1.556.081,2.537,2.537,0,0,1,2.221.007Q11.119,0,20.018,0A2.092,2.092,0,0,1,22.2,1.784c0,.012.016.023.025.034ZM11.116,1.289H4.908c-.94,0-1.881,0-2.822,0a.755.755,0,0,0-.8.76c-.006.086,0,.174,0,.26q0,4.3,0,8.595c0,.738,0,1.476,0,2.214a.767.767,0,0,0,.559.827,1.427,1.427,0,0,0,.365.032q8.91,0,17.819,0c.08,0,.159,0,.238-.007a.744.744,0,0,0,.669-.637,2.545,2.545,0,0,0,.018-.346q0-3.028,0-6.055,0-2.355,0-4.71A1.44,1.44,0,0,0,20.9,1.8a.767.767,0,0,0-.839-.508H11.116" transform="translate(0 0)" fill="rgba(60,60,67,0.6)"/>
    <path id="Path_1918" data-name="Path 1918" d="M46.064,29.7a2.63,2.63,0,1,1,2.619-2.65,2.623,2.623,0,0,1-2.619,2.65M47.4,27.078a1.341,1.341,0,0,0-1.348-1.346A1.347,1.347,0,1,0,47.4,27.078" transform="translate(-38.79 -21.834)" fill="rgba(0,122,255,0.47)"/>
    <path id="Path_1919" data-name="Path 1919" d="M38.044,78.129c.39,0,.782-.022,1.171,0a2.538,2.538,0,0,1,2.4,2.437c.022.4.015.81,0,1.214a.641.641,0,0,1-.631.644.63.63,0,0,1-.641-.607c-.022-.346-.008-.694-.011-1.041A1.287,1.287,0,0,0,38.952,79.4c-.615,0-1.229,0-1.844,0a1.283,1.283,0,0,0-1.359,1.339c-.008.361.011.724-.013,1.084a.62.62,0,0,1-.811.574.547.547,0,0,1-.437-.487,5.48,5.48,0,0,1,.123-2.064,2.57,2.57,0,0,1,2.479-1.729c.318-.005.636,0,.954,0v.013" transform="translate(-30.771 -69.771)" fill="rgba(0,122,255,0.47)"/>
    <path id="Path_1920" data-name="Path 1920" d="M116.207,35.255q-1.411,0-2.821,0c-.338,0-.529-.128-.6-.391a.486.486,0,0,1,.372-.607,1.362,1.362,0,0,1,.28-.028q2.767,0,5.534,0a1.45,1.45,0,0,1,.3.029.5.5,0,0,1,.381.469.491.491,0,0,1-.352.49,1.15,1.15,0,0,1-.3.036c-.933,0-1.867,0-2.8,0" transform="translate(-100.73 -30.573)" fill="rgba(60,60,67,0.6)"/>
    <path id="Path_1921" data-name="Path 1921" d="M116.157,99.109q1.389,0,2.778,0a1.2,1.2,0,0,1,.3.034.488.488,0,0,1,.361.483.5.5,0,0,1-.393.481.918.918,0,0,1-.193.026q-2.854,0-5.708,0a.541.541,0,0,1-.559-.329.509.509,0,0,1,.506-.694c.325-.011.651,0,.977,0h1.932" transform="translate(-100.667 -88.522)" fill="rgba(60,60,67,0.6)"/>
    <path id="Path_1922" data-name="Path 1922" d="M136.764,81.548c-.563,0-1.127,0-1.69,0a.514.514,0,0,1-.572-.556.476.476,0,0,1,.38-.441,1.094,1.094,0,0,1,.235-.029c1.112,0,2.224,0,3.336,0a.87.87,0,0,1,.334.068.478.478,0,0,1,.271.5.47.47,0,0,1-.372.427,1.225,1.225,0,0,1-.278.032c-.549,0-1.1,0-1.646,0" transform="translate(-120.136 -71.919)" fill="rgba(60,60,67,0.6)"/>
    <path id="Path_1923" data-name="Path 1923" d="M136.737,63.005c-.55,0-1.1.005-1.649,0a.9.9,0,0,1-.373-.083.458.458,0,0,1-.23-.535.473.473,0,0,1,.4-.379.814.814,0,0,1,.151-.015c1.143,0,2.286-.008,3.429.008a.777.777,0,0,1,.455.192.423.423,0,0,1,.069.523.507.507,0,0,1-.493.293c-.586,0-1.172,0-1.758,0" transform="translate(-120.109 -55.367)" fill="rgba(60,60,67,0.6)"/>
  </g>
</svg>
