<svg id="Group_1745" data-name="Group 1745" xmlns="http://www.w3.org/2000/svg" xmlns:xlink="http://www.w3.org/1999/xlink" width="22.971" height="26" viewBox="0 0 22.971 26">
  <defs>
    <clipPath id="clip-path">
      <rect id="Rectangle_495" data-name="Rectangle 495" width="22.971" height="26" fill="rgba(60,60,67,0.6)"/>
    </clipPath>
  </defs>
  <g id="Group_1744" data-name="Group 1744" clip-path="url(#clip-path)">
    <path id="Path_1924" data-name="Path 1924" d="M13.111,0c.308.186.359.313.288.7-.114.623-.226,1.246-.345,1.9h6.235c.516,0,.645.129.645.644q0,7.109,0,14.217v.292l.056.013q.411-.512.822-1.023c.274-.34.515-.357.825-.052q.56.553,1.113,1.113c.288.291.293.473.025.791-.89,1.053-1.786,2.1-2.667,3.163a.77.77,0,0,0-.166.448c-.014,1.075-.011,2.149,0,3.224a.549.549,0,0,1-.325.574H.312A.613.613,0,0,1,0,25.366Q.007,14.312,0,3.258C0,2.712.123,2.6.681,2.6h6.2C6.762,1.929,6.664,1.3,6.536.683A.554.554,0,0,1,6.813,0Zm4.612,20.6c.42-.523.817-1.006,1.2-1.5a.726.726,0,0,0,.142-.408q.011-7.464.006-14.927V3.476H12.908c-.018.077-.037.149-.051.223-.115.632-.227,1.264-.346,1.9-.069.369-.188.469-.568.47q-1.98,0-3.961,0c-.369,0-.5-.118-.563-.48-.113-.624-.238-1.245-.334-1.872-.032-.207-.11-.255-.307-.254-1.879.007-3.758,0-5.637,0-.082,0-.165.007-.252.011V25.116H19.05V22.994c-.319.375-.6.71-.883,1.039a.455.455,0,0,1-.775.034q-1.233-1.227-2.459-2.46a.453.453,0,0,1,0-.746q.578-.589,1.167-1.167a.453.453,0,0,1,.746,0c.288.286.568.58.879.9M12.48.878h-5a.732.732,0,0,0,0,.114q.36,2.021.72,4.043c.025.143.105.164.231.164q1.536-.005,3.072,0c.152,0,.222-.037.248-.2.08-.518.182-1.032.275-1.547.152-.848.3-1.7.459-2.571M17.764,23.17l4.145-4.9-.664-.68c-.04.048-.089.106-.136.165l-2.883,3.6c-.313.391-.544.406-.894.051-.283-.287-.558-.581-.809-.844l-.691.675,1.931,1.93" transform="translate(0)" fill="rgba(60,60,67,0.6)"/>
    <path id="Path_1925" data-name="Path 1925" d="M45.754,112.813h-6.7c-.549,0-.663-.116-.663-.674q0-4.532,0-9.063c0-.533.123-.657.657-.657H52.476c.527,0,.644.118.644.639q0,4.57,0,9.139c0,.491-.124.616-.613.616H45.754m-6.491-.882H42.72v-.288q0-.888,0-1.777a2.074,2.074,0,0,1,.576-1.55,7.806,7.806,0,0,1,.8-.609c-.715-1.221-.645-2.219.227-3.012a2.157,2.157,0,0,1,3.531,1.081,2.194,2.194,0,0,1-.467,1.964,2.2,2.2,0,0,1,1.409,2.272v1.914H52.24v-8.619H39.263Zm4.352-.008h4.311c0-.749.02-1.476-.006-2.2a1.222,1.222,0,0,0-1.178-1.229c-.658-.025-1.319-.023-1.977,0a1.171,1.171,0,0,0-1.14,1.034c-.04.791-.01,1.585-.01,2.395m.85-5.634a1.3,1.3,0,0,0,1.258,1.326,1.318,1.318,0,0,0,1.335-1.285,1.3,1.3,0,0,0-1.255-1.306,1.283,1.283,0,0,0-1.339,1.264" transform="translate(-35.789 -95.483)" fill="rgba(60,60,67,0.6)"/>
    <rect id="Rectangle_490" data-name="Rectangle 490" width="10.382" height="0.825" transform="translate(2.615 20.825)" fill="rgba(0,122,255,0.47)"/>
    <rect id="Rectangle_491" data-name="Rectangle 491" width="6.895" height="0.834" transform="translate(7.392 23.418)" fill="rgba(0,122,255,0.47)"/>
    <rect id="Rectangle_492" data-name="Rectangle 492" width="6.479" height="0.828" transform="translate(2.607 18.217)" fill="rgba(0,122,255,0.47)"/>
    <rect id="Rectangle_493" data-name="Rectangle 493" width="3.884" height="0.826" transform="translate(2.606 23.424)" fill="rgba(0,122,255,0.47)"/>
    <rect id="Rectangle_494" data-name="Rectangle 494" width="2.571" height="0.828" transform="translate(9.982 18.22)" fill="rgba(0,122,255,0.47)"/>
    <path id="Path_1926" data-name="Path 1926" d="M198.383,269.545c0-.271-.008-.506.007-.74,0-.045.086-.1.142-.124a.378.378,0,0,1,.15,0H200.1v.845a1.045,1.045,0,0,1-.151.022c-.506,0-1.012,0-1.563,0" transform="translate(-184.949 -250.48)" fill="rgba(0,122,255,0.47)"/>
    <path id="Path_1927" data-name="Path 1927" d="M129.428,28.186a1.287,1.287,0,0,1-1.3-1.284,1.3,1.3,0,0,1,1.278-1.309,1.319,1.319,0,0,1,1.317,1.3,1.3,1.3,0,0,1-1.3,1.289m.424-1.293a.443.443,0,0,0-.415-.431.43.43,0,0,0-.436.431.417.417,0,0,0,.436.425.428.428,0,0,0,.415-.425" transform="translate(-119.456 -23.86)" fill="rgba(0,122,255,0.47)"/>
  </g>
</svg>
