<svg id="Group_1741" data-name="Group 1741" xmlns="http://www.w3.org/2000/svg" xmlns:xlink="http://www.w3.org/1999/xlink" width="22.015" height="29.332" viewBox="0 0 22.015 29.332">
  <defs>
    <clipPath id="clip-path">
      <rect id="Rectangle_488" data-name="Rectangle 488" width="22.015" height="29.332" fill="rgba(60,60,67,0.6)"/>
    </clipPath>
  </defs>
  <g id="Group_1740" data-name="Group 1740" clip-path="url(#clip-path)">
    <path id="Path_1913" data-name="Path 1913" d="M2.179,29.333a6.384,6.384,0,0,1-1.17-.494A2.3,2.3,0,0,1,0,26.824Q0,16.494,0,6.165A2.47,2.47,0,0,1,2.132,3.682c1.081-.224,2.14-.558,3.205-.852Q10.258,1.471,15.178.106a2.426,2.426,0,0,1,3.167,2.415c0,.362,0,.725,0,1.131.388,0,.766,0,1.144,0a2.461,2.461,0,0,1,2.033.989,2.559,2.559,0,0,1,.493,1.611q0,5.1,0,10.2,0,5.143,0,10.286a2.428,2.428,0,0,1-1.394,2.343,5.174,5.174,0,0,1-.784.252ZM20.8,16.522q0-5.116,0-10.231a1.375,1.375,0,0,0-.4-1.091,1.436,1.436,0,0,0-1.036-.33q-5.216,0-10.432,0-3.153,0-6.305,0a1.209,1.209,0,0,0-1.176.565,1.976,1.976,0,0,0-.214.9q-.019,7.652-.009,15.3,0,2.536,0,5.073A1.339,1.339,0,0,0,1.7,27.85a1.487,1.487,0,0,0,.974.265H15.8q1.806,0,3.611,0a1.334,1.334,0,0,0,1.078-.432,1.449,1.449,0,0,0,.306-1.016q0-5.073,0-10.145M17.126,3.64c0-.394,0-.755,0-1.117a1.2,1.2,0,0,0-1.632-1.231Q12.407,2.141,9.323,3L7.132,3.6l.008.038Z" transform="translate(0 -0.001)" fill="rgba(60,60,67,0.6)"/>
    <path id="Path_1914" data-name="Path 1914" d="M66.441,115.4a6.727,6.727,0,1,1,6.72-6.734,6.741,6.741,0,0,1-6.72,6.734m1.762-7.353c.015-.035.03-.053.029-.07a10.1,10.1,0,0,0-.693-3.513,4.651,4.651,0,0,0-.521-.915.633.633,0,0,0-1.144-.019,3.829,3.829,0,0,0-.364.579,7.618,7.618,0,0,0-.728,2.482c-.067.477-.1.958-.157,1.457Zm-3.595,1.237c.082.662.128,1.282.242,1.89a6.019,6.019,0,0,0,1.007,2.62c.377.5.805.506,1.161,0a5.084,5.084,0,0,0,.564-1.022,10.285,10.285,0,0,0,.654-3.486H64.609Zm7.256-1.233a5.341,5.341,0,0,0-3.271-4.392c.2.685.443,1.395.6,2.124s.226,1.5.336,2.269ZM64.3,103.614a5.519,5.519,0,0,0-3.3,4.431h2.354c.11-.77.177-1.522.333-2.256s.4-1.441.613-2.176m7.579,5.693h-2.4a12.069,12.069,0,0,1-1,4.473,5.576,5.576,0,0,0,3.4-4.473m-8.486,0H61a5.564,5.564,0,0,0,3.4,4.476A12.033,12.033,0,0,1,63.4,109.3" transform="translate(-55.434 -94.63)" fill="rgba(0,122,255,0.47)"/>
    <path id="Path_1915" data-name="Path 1915" d="M64.482,306.832h5.874c.55,0,.837.2.847.6s-.292.625-.851.625q-5.875,0-11.749,0a1.585,1.585,0,0,1-.451-.055.594.594,0,0,1,.085-1.141,2.324,2.324,0,0,1,.4-.025q2.923,0,5.846,0Z" transform="translate(-53.612 -284.799)" fill="rgba(60,60,67,0.6)"/>
    <path id="Path_1916" data-name="Path 1916" d="M96.138,340.771q1.7,0,3.408,0a1.7,1.7,0,0,1,.4.043.593.593,0,0,1-.01,1.148,1.859,1.859,0,0,1-.4.038q-3.422,0-6.844,0c-.057,0-.115,0-.172,0-.421-.026-.685-.267-.68-.62a.628.628,0,0,1,.692-.608c.649-.01,1.3,0,1.947,0h1.661" transform="translate(-85.244 -316.302)" fill="rgba(60,60,67,0.6)"/>
  </g>
</svg>
