<svg xmlns="http://www.w3.org/2000/svg" xmlns:xlink="http://www.w3.org/1999/xlink" width="16.169" height="24.259" viewBox="0 0 16.169 24.259">
  <defs>
    <clipPath id="clip-path">
      <rect id="Rectangle_819" data-name="Rectangle 819" width="16.169" height="24.259" fill="rgba(60,60,67,0.6)"/>
    </clipPath>
    <clipPath id="clip-path-2">
      <rect id="Rectangle_820" data-name="Rectangle 820" width="6.877" height="8.749" fill="#87c0ff"/>
    </clipPath>
  </defs>
  <g id="Group_1792" data-name="Group 1792" transform="translate(-38.393 -282.871)">
    <g id="Group_1785" data-name="Group 1785" transform="translate(38.393 282.871)">
      <g id="Group_1784" data-name="Group 1784" clip-path="url(#clip-path)">
        <path id="Path_2806" data-name="Path 2806" d="M16.168,12.143q0,4.507,0,9.015A2.944,2.944,0,0,1,14.1,24.1a3.446,3.446,0,0,1-.983.147q-5.036.016-10.072,0A2.945,2.945,0,0,1,.008,21.238q-.015-9.109,0-18.219A2.948,2.948,0,0,1,3.077,0Q8.086,0,13.095,0a2.959,2.959,0,0,1,3.071,3.072c.007,3.023,0,6.046,0,9.069m-1.151.009q0-4.507,0-9.014a1.838,1.838,0,0,0-2-1.985q-4.941,0-9.882,0A1.839,1.839,0,0,0,1.155,3.147q0,8.987,0,17.973a1.84,1.84,0,0,0,2,1.986q4.941,0,9.882,0a1.84,1.84,0,0,0,1.986-2q0-4.48,0-8.96" transform="translate(0 0)" fill="rgba(60,60,67,0.6)"/>
        <path id="Path_2807" data-name="Path 2807" d="M89.574,258.985a1.731,1.731,0,0,1-.007-3.462,1.743,1.743,0,0,1,1.743,1.759,1.725,1.725,0,0,1-1.736,1.7m.009-2.3a.576.576,0,0,0-.584.579.578.578,0,0,0,1.156-.016.575.575,0,0,0-.572-.563" transform="translate(-81.492 -237.044)" fill="rgba(60,60,67,0.6)"/>
        <path id="Path_2808" data-name="Path 2808" d="M74.865,32.016c.73,0,1.461,0,2.191,0,.444,0,.69.216.683.585-.007.353-.258.564-.681.564q-2.2,0-4.409,0c-.414,0-.669-.223-.67-.576s.242-.571.668-.573c.739,0,1.479,0,2.218,0" transform="translate(-66.774 -29.7)" fill="rgba(60,60,67,0.6)"/>
      </g>
    </g>
    <g id="Group_1787" data-name="Group 1787" transform="translate(43.04 290.625)">
      <g id="Group_1786" data-name="Group 1786" clip-path="url(#clip-path-2)">
        <path id="Path_2809" data-name="Path 2809" d="M0,4.658Q0,2.832,0,1.007A.941.941,0,0,1,1.008,0H5.871A.941.941,0,0,1,6.877,1.008q0,3.686,0,7.371a.318.318,0,0,1-.228.353.307.307,0,0,1-.32-.093L5.88,8.191A.317.317,0,0,0,5.4,8.165q-.286.228-.575.453a.616.616,0,0,1-.852-.087c-.091-.106-.17-.222-.255-.333a.317.317,0,0,0-.556,0c-.076.1-.151.2-.229.3a.624.624,0,0,1-.916.09c-.187-.157-.38-.306-.573-.456a.3.3,0,0,0-.416.032c-.154.15-.3.3-.456.455a.315.315,0,0,1-.377.1A.322.322,0,0,1,0,8.388Q0,6.523,0,4.658M4.064,1.563H2.853a.314.314,0,1,0,0,.625H5.279a.314.314,0,1,0-.005-.625H4.064m-.01,2.812H5.274a.314.314,0,1,0,.005-.625H2.848a.314.314,0,1,0,0,.625h1.2m.009,2.187H5.284a.314.314,0,1,0,0-.625H2.849a.314.314,0,1,0,0,.625H4.063M1.876,1.879a.312.312,0,1,0-.313.309.315.315,0,0,0,.313-.309M1.567,3.751a.312.312,0,1,0,.308.314.313.313,0,0,0-.308-.314M1.562,5.938a.312.312,0,1,0,.314.308.313.313,0,0,0-.314-.308" transform="translate(0 -0.001)" fill="#87c0ff"/>
      </g>
    </g>
  </g>
</svg>
