<svg xmlns="http://www.w3.org/2000/svg" width="26.319" height="22.701" viewBox="0 0 26.319 22.701">
  <g id="Group_1582" data-name="Group 1582" transform="translate(654.986 -332.91)">
    <path id="Path_2786" data-name="Path 2786" d="M-633.183,453.985c-.3-.289-.61-.573-.907-.867-.707-.7-1.421-1.4-2.109-2.121a1.277,1.277,0,0,1,.039-1.807,1.322,1.322,0,0,1,1.816-.043c.039.034.075.071.111.107q2.573,2.573,5.145,5.147a1.309,1.309,0,0,1-.009,1.99q-2.571,2.575-5.149,5.143a1.317,1.317,0,0,1-1.923.049,1.3,1.3,0,0,1,.063-1.9q1.348-1.356,2.7-2.7c.07-.07.135-.145.253-.271h-20.181a3.031,3.031,0,0,1-.522-.029,1.288,1.288,0,0,1-1.1-1.382,1.309,1.309,0,0,1,1.243-1.224c.133-.009.267,0,.4,0h20.072Z" transform="translate(-0.032 -106.365)" fill="#69686a"/>
    <path id="Path_2787" data-name="Path 2787" d="M-650.477,338.182h.445q9.885,0,19.77,0a1.586,1.586,0,0,1,1.019.277,1.325,1.325,0,0,1,.468,1.407,1.333,1.333,0,0,1-1.2.954c-.123.009-.247,0-.37,0h-20.122c.115.121.186.2.26.273.922.924,1.848,1.845,2.766,2.773a1.247,1.247,0,0,1,.3,1.365,1.239,1.239,0,0,1-1.1.864,1.221,1.221,0,0,1-1.042-.359q-2.665-2.657-5.319-5.325a1.276,1.276,0,0,1,.019-1.855q2.62-2.636,5.256-5.257a1.3,1.3,0,0,1,1.856,0,1.29,1.29,0,0,1-.005,1.855c-.9.919-1.814,1.821-2.722,2.731C-650.27,337.962-650.345,338.044-650.477,338.182Z" fill="#69686a"/>
  </g>
</svg>
