<svg id="Group_1794" data-name="Group 1794" xmlns="http://www.w3.org/2000/svg" xmlns:xlink="http://www.w3.org/1999/xlink" width="17.391" height="21.739" viewBox="0 0 17.391 21.739">
  <defs>
    <clipPath id="clip-path">
      <rect id="Rectangle_828" data-name="Rectangle 828" width="17.391" height="21.739" fill="none"/>
    </clipPath>
  </defs>
  <g id="Group_1793" data-name="Group 1793" clip-path="url(#clip-path)">
    <path id="Path_2817" data-name="Path 2817" d="M0,10.869q0-4.03,0-8.06A2.7,2.7,0,0,1,2.111.083,3.253,3.253,0,0,1,2.847.006Q7.857,0,12.868,0a.934.934,0,0,1,.65.239Q15.3,1.781,17.1,3.31a.783.783,0,0,1,.291.646q-.006,7.477,0,14.953a2.723,2.723,0,0,1-2.824,2.826q-5.872.006-11.745,0A2.723,2.723,0,0,1,0,18.9q0-4.017,0-8.033m1.094-.022q0,4.03,0,8.059a1.611,1.611,0,0,0,1.712,1.735q5.885.006,11.771,0a1.606,1.606,0,0,0,1.714-1.706q.005-7.33-.005-14.66a.527.527,0,0,0-.16-.355q-1.549-1.349-3.12-2.673a.671.671,0,0,0-.4-.144q-4.878-.012-9.756,0a2.244,2.244,0,0,0-.5.042A1.612,1.612,0,0,0,1.1,2.814q0,4.016,0,8.033" transform="translate(0 0)" fill="rgba(60,60,67,0.6)"/>
    <path id="Path_2818" data-name="Path 2818" d="M72.84,77.746a3.893,3.893,0,0,1-3.816-3.76,2.8,2.8,0,0,1,.337-1.348,9.907,9.907,0,0,1,2.207-2.723c.284-.265.583-.514.885-.758a.524.524,0,0,1,.746,0,13.216,13.216,0,0,1,2.692,2.8,3.8,3.8,0,0,1,.7,1.611,3.735,3.735,0,0,1-2.5,3.906,11.156,11.156,0,0,1-1.258.279m-.012-7.5c-.138.12-.26.221-.376.328a9.418,9.418,0,0,0-2.019,2.368,2.266,2.266,0,0,0-.3.994A2.656,2.656,0,0,0,72.744,76.6a2.59,2.59,0,0,0,2.436-1.368,2.232,2.232,0,0,0-.119-2.583,13.139,13.139,0,0,0-2.231-2.4" transform="translate(-64.132 -64.109)" fill="#87c0ff"/>
    <path id="Path_2819" data-name="Path 2819" d="M72.905,231.093q-1.577,0-3.154,0a.562.562,0,0,1-.618-.391.521.521,0,0,1,.36-.666,1.466,1.466,0,0,1,.367-.034q3.048,0,6.1,0h.053c.443,0,.7.206.7.548s-.26.543-.7.544h-3.1" transform="translate(-64.213 -213.703)" fill="#87c0ff"/>
  </g>
</svg>
