<?xml version="1.0" encoding="UTF-8"?><svg id="a" xmlns="http://www.w3.org/2000/svg" viewBox="0 0 624.68 246.71"><defs><style>.b{fill:#e31e27;}.c{fill:#fff;}</style></defs><path class="c" d="M82.34,91.72l-.97,25.48c-3.23-.81-6.61-1.29-9.84-1.29-13.38,0-21.61,11.77-21.61,29.18v36.44H23.32V92.37h26.6v12.09c6.13-9.19,15.16-13.38,24.19-13.38,3.06,0,5.96,.32,8.22,.65Z"/><path class="c" d="M101.08,151.85c6.2,9.13,17.18,11.23,29.11,6.32,8.2-3.38,13.18-8.22,15.83-15.76l19.89,6.81c-4.67,12.38-13.24,22.89-28.75,29.27-26.69,10.99-53.5,.93-63.75-23.97-10.19-24.75,.42-50.22,27.26-61.27,24.15-9.94,47.67-.27,56.87,22.09,1.41,3.43,2.46,6.83,3.62,11.76l-60.09,24.74Zm-6.05-15.12l37.42-15.41c-5.73-9.67-14.59-12.13-24.13-8.2-10.44,4.3-15.29,13.27-13.3,23.61Z"/><path class="c" d="M184.3,181.53l-36.92-89.17h28.54l22.09,64.82h.16l21.93-64.82h28.7l-36.92,89.17h-27.57Z"/><path class="b" d="M255.32,181.53V92.37h26.6v89.17h-26.6Z"/><path class="b" d="M362.57,177.18c-7.74,4.35-19.19,6.29-27.09,6.29-19.99,0-31.76-10.8-31.76-31.12v-38.05h-15.8v-21.93h16.45l1.61-22.57h24.19v22.57h29.02v-.07l-29.02,22v34.51c0,7.42,4.03,11.77,10.64,11.77,4.68,0,11.77-1.13,16.77-3.39l5,19.99Z"/><path class="b" d="M430.26,92.37h26.6v89.17h-26.6v-9.67c-7.42,7.9-17.58,11.61-28.86,11.61-24.19,0-42.89-18.7-42.89-46.28s19.03-46.76,42.73-46.76c11.29,0,21.61,3.71,29.02,11.77v-9.84Zm0,44.66c0-14.67-9.51-23.7-22.9-23.7s-22.25,9.51-22.25,23.86,9.19,23.38,22.25,23.38,22.9-9.03,22.9-23.54Z"/><path class="b" d="M521.74,92.37h26.61v89.17h-26.61v-9.67c-7.42,7.9-17.57,11.61-28.86,11.61-24.19,0-42.89-18.7-42.89-46.28s19.03-46.76,42.73-46.76c11.29,0,21.61,3.71,29.02,11.77v-9.84Zm0,44.66c0-14.67-9.51-23.7-22.9-23.7s-22.25,9.51-22.25,23.86,9.19,23.38,22.25,23.38,22.9-9.03,22.9-23.54Z"/><path class="b" d="M543.57,173.31l8.87-19.19c10.96,5.48,21.77,8.06,33.05,8.06,8.38,0,13.87-1.61,13.87-7.09,0-4.68-4.35-6.61-18.06-8.87-25.96-4.19-34.99-11.93-34.99-27.09,0-18.54,14.67-28.7,37.25-28.7,12.42,0,29.02,3.71,38.21,9.19l-9.03,19.19c-8.87-4.35-19.99-7.26-30.64-7.26-7.09,0-10.16,2.26-10.16,5.97s3.06,5.64,16.45,8.06c26.93,5,36.28,13.38,36.28,28.7,0,18.7-16.61,29.18-40.79,29.18-15.64,0-29.99-4.68-40.31-10.16Z"/><circle class="b" cx="267.5" cy="69.52" r="15"/><g><path class="b" d="M293.97,39.36c-1.22-.01-2.43-.49-3.35-1.44-12.73-12.97-33.61-13.18-46.6-.47-1.87,1.84-4.9,1.81-6.73-.07s-1.81-4.9,.07-6.73c16.73-16.4,43.67-16.12,60.07,.61,1.84,1.87,1.81,4.9-.07,6.73-.95,.93-2.17,1.38-3.38,1.37Z"/><path class="b" d="M280.95,52.11c-1.22-.01-2.43-.49-3.35-1.44-2.74-2.8-6.44-4.37-10.36-4.41s-7.65,1.45-10.45,4.2c-1.87,1.84-4.9,1.81-6.73-.07-1.84-1.87-1.81-4.9,.07-6.73,4.62-4.53,10.73-6.99,17.21-6.92,6.48,.07,12.54,2.65,17.07,7.29,1.84,1.87,1.81,4.9-.07,6.73-.93,.91-2.16,1.36-3.38,1.35Z"/><path class="b" d="M307.19,26.41c-1.22-.01-2.43-.49-3.35-1.44-19.87-20.26-52.5-20.59-72.76-.74-1.87,1.84-4.9,1.81-6.73-.07-1.84-1.87-1.81-4.9,.07-6.73C236.06,6.02,251.43-.16,267.72,0c16.29,.17,31.54,6.66,42.94,18.3,1.84,1.87,1.81,4.9-.07,6.73-.96,.93-2.19,1.38-3.4,1.37Z"/></g><g><path class="c" d="M139.62,215.38v30.83h-3.98v-30.83h3.98Z"/><path class="c" d="M152.42,218.76h-9.38v-3.38h22.83v3.38h-9.42v27.45h-4.03v-27.45Z"/><path class="c" d="M198.9,234.95c0,8.19-5.67,11.76-11.02,11.76-5.99,0-10.61-4.39-10.61-11.39,0-7.41,4.85-11.76,10.98-11.76s10.66,4.62,10.66,11.39Zm-17.57,.23c0,4.85,2.79,8.51,6.72,8.51s6.72-3.61,6.72-8.6c0-3.75-1.88-8.51-6.63-8.51s-6.82,4.39-6.82,8.6Z"/><path class="c" d="M203.99,230.06c0-2.29-.05-4.16-.18-5.99h3.57l.23,3.66h.09c1.1-2.1,3.66-4.16,7.32-4.16,3.06,0,7.82,1.83,7.82,9.42v13.22h-4.03v-12.76c0-3.57-1.33-6.54-5.12-6.54-2.65,0-4.71,1.88-5.4,4.12-.18,.5-.27,1.19-.27,1.88v13.31h-4.03v-16.15Z"/><path class="c" d="M258.2,213.73v26.76c0,1.97,.05,4.21,.18,5.72h-3.61l-.18-3.84h-.09c-1.24,2.47-3.93,4.35-7.55,4.35-5.35,0-9.47-4.53-9.47-11.25-.05-7.37,4.53-11.89,9.93-11.89,3.39,0,5.67,1.6,6.68,3.39h.09v-13.22h4.03Zm-4.03,19.35c0-.5-.05-1.19-.18-1.69-.59-2.56-2.79-4.67-5.81-4.67-4.16,0-6.63,3.66-6.63,8.55,0,4.48,2.2,8.19,6.54,8.19,2.7,0,5.17-1.79,5.9-4.8,.14-.55,.18-1.1,.18-1.74v-3.84Z"/><path class="c" d="M267.12,235.87c.09,5.44,3.57,7.68,7.59,7.68,2.88,0,4.62-.5,6.13-1.14l.69,2.88c-1.42,.64-3.84,1.37-7.37,1.37-6.82,0-10.89-4.48-10.89-11.16s3.93-11.94,10.38-11.94c7.23,0,9.15,6.36,9.15,10.43,0,.82-.09,1.46-.14,1.88h-15.55Zm11.8-2.88c.04-2.56-1.05-6.54-5.58-6.54-4.07,0-5.86,3.75-6.18,6.54h11.76Z"/><path class="c" d="M287.8,230.06c0-2.29-.05-4.16-.18-5.99h3.52l.18,3.57h.14c1.24-2.11,3.29-4.07,6.95-4.07,3.02,0,5.31,1.83,6.27,4.44h.09c.69-1.23,1.55-2.2,2.47-2.88,1.33-1.01,2.79-1.56,4.89-1.56,2.93,0,7.27,1.92,7.27,9.61v13.04h-3.93v-12.53c0-4.25-1.56-6.82-4.8-6.82-2.29,0-4.07,1.69-4.76,3.66-.18,.55-.32,1.28-.32,2.01v13.68h-3.93v-13.27c0-3.52-1.55-6.08-4.62-6.08-2.52,0-4.35,2.01-4.99,4.03-.23,.59-.32,1.28-.32,1.97v13.36h-3.93v-16.15Z"/><path class="c" d="M338.21,246.21l-.32-2.79h-.14c-1.24,1.74-3.61,3.29-6.77,3.29-4.48,0-6.77-3.16-6.77-6.36,0-5.35,4.76-8.28,13.31-8.23v-.46c0-1.83-.5-5.12-5.03-5.12-2.06,0-4.21,.64-5.76,1.65l-.92-2.65c1.83-1.19,4.48-1.97,7.27-1.97,6.77,0,8.42,4.62,8.42,9.06v8.28c0,1.92,.09,3.8,.37,5.31h-3.66Zm-.59-11.3c-4.39-.09-9.38,.69-9.38,4.99,0,2.61,1.74,3.84,3.8,3.84,2.88,0,4.71-1.83,5.35-3.71,.14-.41,.23-.87,.23-1.28v-3.84Z"/><path class="c" d="M348,230.06c0-2.29-.05-4.16-.18-5.99h3.57l.23,3.66h.09c1.1-2.1,3.66-4.16,7.32-4.16,3.06,0,7.82,1.83,7.82,9.42v13.22h-4.03v-12.76c0-3.57-1.33-6.54-5.12-6.54-2.65,0-4.71,1.88-5.4,4.12-.18,.5-.27,1.19-.27,1.88v13.31h-4.03v-16.15Z"/><path class="c" d="M392.52,213.73v26.76c0,1.97,.05,4.21,.18,5.72h-3.61l-.18-3.84h-.09c-1.24,2.47-3.93,4.35-7.55,4.35-5.35,0-9.47-4.53-9.47-11.25-.05-7.37,4.53-11.89,9.93-11.89,3.39,0,5.67,1.6,6.68,3.39h.09v-13.22h4.03Zm-4.03,19.35c0-.5-.05-1.19-.18-1.69-.59-2.56-2.79-4.67-5.81-4.67-4.16,0-6.63,3.66-6.63,8.55,0,4.48,2.2,8.19,6.54,8.19,2.7,0,5.17-1.79,5.9-4.8,.14-.55,.18-1.1,.18-1.74v-3.84Z"/><path class="c" d="M397.78,243.83c0-1.69,1.14-2.88,2.75-2.88s2.7,1.19,2.7,2.88-1.05,2.88-2.74,2.88c-1.6,0-2.7-1.24-2.7-2.88Z"/><path class="c" d="M418.05,215.79c2.42-.37,5.31-.64,8.46-.64,5.72,0,9.79,1.33,12.49,3.84,2.74,2.52,4.35,6.08,4.35,11.07s-1.56,9.15-4.44,11.99c-2.88,2.88-7.64,4.44-13.63,4.44-2.84,0-5.21-.14-7.23-.37v-30.33Zm3.98,27.26c1.01,.18,2.47,.23,4.03,.23,8.51,0,13.13-4.76,13.13-13.08,.05-7.27-4.07-11.89-12.49-11.89-2.06,0-3.61,.18-4.67,.41v24.34Z"/><path class="c" d="M450.8,235.87c.09,5.44,3.57,7.68,7.59,7.68,2.88,0,4.62-.5,6.13-1.14l.69,2.88c-1.42,.64-3.84,1.37-7.37,1.37-6.82,0-10.89-4.48-10.89-11.16s3.93-11.94,10.38-11.94c7.23,0,9.15,6.36,9.15,10.43,0,.82-.09,1.46-.14,1.88h-15.55Zm11.8-2.88c.04-2.56-1.05-6.54-5.58-6.54-4.07,0-5.86,3.75-6.18,6.54h11.76Z"/><path class="c" d="M471.48,213.73h4.03v32.48h-4.03v-32.48Z"/><path class="c" d="M486.76,217.84c.05,1.37-.96,2.47-2.56,2.47-1.42,0-2.42-1.1-2.42-2.47s1.05-2.52,2.52-2.52,2.47,1.1,2.47,2.52Zm-4.48,28.36v-22.14h4.03v22.14h-4.03Z"/><path class="c" d="M494.54,224.07l4.35,12.44c.73,2.01,1.33,3.84,1.78,5.67h.14c.5-1.83,1.14-3.66,1.88-5.67l4.3-12.44h4.21l-8.69,22.14h-3.84l-8.42-22.14h4.3Z"/><path class="c" d="M516.77,235.87c.09,5.44,3.57,7.68,7.59,7.68,2.88,0,4.62-.5,6.13-1.14l.69,2.88c-1.42,.64-3.84,1.37-7.37,1.37-6.82,0-10.89-4.48-10.89-11.16s3.93-11.94,10.38-11.94c7.23,0,9.15,6.36,9.15,10.43,0,.82-.09,1.46-.14,1.88h-15.55Zm11.8-2.88c.04-2.56-1.05-6.54-5.58-6.54-4.07,0-5.86,3.75-6.18,6.54h11.76Z"/><path class="c" d="M537.45,230.97c0-2.61-.05-4.85-.18-6.91h3.52l.14,4.35h.18c1.01-2.97,3.43-4.85,6.13-4.85,.46,0,.78,.05,1.14,.14v3.8c-.41-.09-.82-.14-1.37-.14-2.84,0-4.85,2.15-5.4,5.17-.09,.55-.18,1.19-.18,1.88v11.8h-3.98v-15.23Z"/><path class="c" d="M554.2,235.87c.09,5.44,3.57,7.68,7.59,7.68,2.88,0,4.62-.5,6.13-1.14l.69,2.88c-1.42,.64-3.84,1.37-7.37,1.37-6.82,0-10.89-4.48-10.89-11.16s3.93-11.94,10.38-11.94c7.23,0,9.15,6.36,9.15,10.43,0,.82-.09,1.46-.14,1.88h-15.55Zm11.8-2.88c.04-2.56-1.05-6.54-5.58-6.54-4.07,0-5.86,3.75-6.18,6.54h11.76Z"/><path class="c" d="M594,213.73v26.76c0,1.97,.05,4.21,.18,5.72h-3.61l-.18-3.84h-.09c-1.24,2.47-3.93,4.35-7.55,4.35-5.35,0-9.47-4.53-9.47-11.25-.05-7.37,4.53-11.89,9.93-11.89,3.39,0,5.67,1.6,6.68,3.39h.09v-13.22h4.03Zm-4.03,19.35c0-.5-.05-1.19-.18-1.69-.59-2.56-2.79-4.67-5.81-4.67-4.16,0-6.63,3.66-6.63,8.55,0,4.48,2.2,8.19,6.54,8.19,2.7,0,5.17-1.79,5.9-4.8,.14-.55,.18-1.1,.18-1.74v-3.84Z"/><path class="c" d="M599.26,243.83c0-1.69,1.14-2.88,2.74-2.88s2.7,1.19,2.7,2.88-1.05,2.88-2.74,2.88c-1.6,0-2.7-1.24-2.7-2.88Z"/></g><polygon class="c" points="23.32 92.37 0 92.37 24 109.02 23.32 92.37"/></svg>