<?xml version="1.0" encoding="utf-8"?>
<!-- Generator: Adobe Illustrator 27.2.0, SVG Export Plug-In . SVG Version: 6.00 Build 0)  -->
<svg version="1.1" id="Layer_1" xmlns="http://www.w3.org/2000/svg" xmlns:xlink="http://www.w3.org/1999/xlink" x="0px" y="0px"
	 viewBox="0 0 3668.9 1080" style="enable-background:new 0 0 3668.9 1080;" xml:space="preserve">
<style type="text/css">
	.st0{fill:#2B348D;}
	.st1{fill:#C03438;}
	.st2{fill:none;stroke:#FFFFFF;stroke-width:9.0411;stroke-miterlimit:10;}
	.st3{fill:#7C1617;}
	.st4{display:none;}
	.st5{display:inline;}
	.st6{clip-path:url(#SVGID_00000110465660718227149690000011034593403402338976_);}
	.st7{fill:#FFFFFF;}
</style>
<g id="Layer_1_00000062187013328721196400000013158410345880386976_">
	<polygon class="st0" points="88.7,886 564.4,65.8 941.4,720.8 753.6,722.2 561.6,390.5 361.1,737.8 476.9,684.1 561.6,684.1 
		310.3,825.3 276.4,886 	"/>
</g>
<polygon class="st1" points="87.2,886 335.7,461.1 563,133.5 794.5,468.1 941.4,720.8 753.6,722.2 561.6,390.5 276.4,886 "/>
<line class="st2" x1="957.4" y1="340.2" x2="3531.7" y2="335"/>
<line class="st2" x1="957.4" y1="713.6" x2="3531.7" y2="708.4"/>
<polygon class="st3" points="561.6,684.1 561.6,722.2 276.4,886 311.8,824.1 "/>
<polygon class="st1" points="616.6,619.1 562.7,619.2 561.6,520.3 "/>
<polygon class="st0" points="508,619.2 561.6,520.3 562.7,619.2 "/>
<g class="st4">
	<g class="st5">
		<defs>
			<polygon id="SVGID_1_" points="974.5,1048.3 66.1,1048.3 66.5,886.9 975,886.9 			"/>
		</defs>
		<clipPath id="SVGID_00000175319430981175574900000007100362133079668651_">
			<use xlink:href="#SVGID_1_"  style="overflow:visible;"/>
		</clipPath>
		<g style="clip-path:url(#SVGID_00000175319430981175574900000007100362133079668651_);">
			
				<image style="overflow:visible;enable-background:new    ;" width="1259" height="1142" xlink:href="logo refrence.jpeg"  transform="matrix(1 0 0 1 -110.8437 -45.592)">
			</image>
		</g>
	</g>
</g>
<g>
	<path class="st7" d="M974.6,654.5l108.2-252.5h40.1l115.4,252.5h-42.5l-32.8-76.5h-117.8l-31,76.5H974.6z M1056,550.8h95.5
		l-29.5-69.9c-9-21.1-15.7-38.6-19.9-52.4c-3.6,16.3-8.7,32.2-15.1,48.2L1056,550.8z"/>
	<path class="st7" d="M1469.7,565.9l37.4,8.4c-7.8,27.4-22,48.2-42.2,62.7c-20.2,14.5-45.2,21.7-74.4,21.7
		c-30.4,0-55.2-5.4-74.1-16.6s-33.5-27.1-43.4-48.2c-9.9-21.1-14.8-43.7-14.8-67.8c0-26.2,5.7-49.1,16.9-68.7
		c11.2-19.6,27.1-34.4,47.9-44.6c20.8-10.2,43.4-15.4,68.4-15.4c28.3,0,51.8,6.3,71.1,19.3c19.3,13,32.5,31,40.1,54.2l-36.8,7.8
		c-6.6-18.4-16-31.6-28.3-40.1c-12.4-8.4-28-12.7-47-12.7c-21.7,0-39.8,4.5-54.2,13.9c-14.5,9.3-24.7,21.7-30.7,37.4
		c-6,15.7-8.7,31.9-8.7,48.5c0,21.4,3.6,40.1,10.5,56.4c6.9,16,17.8,28,32.5,35.9c14.8,7.8,30.7,11.8,47.9,11.8
		c20.8,0,38.6-5.4,53-16.3C1454.7,603.3,1464.6,587.3,1469.7,565.9z"/>
	<path class="st7" d="M1754.2,565.9l37.4,8.4c-7.8,27.4-22,48.2-42.2,62.7c-20.2,14.5-45.2,21.7-74.4,21.7
		c-30.4,0-55.2-5.4-74.1-16.6c-19-11.2-33.5-27.1-43.4-48.2c-9.9-21.1-14.8-43.7-14.8-67.8c0-26.2,5.7-49.1,16.9-68.7
		c11.2-19.6,27.1-34.4,47.9-44.6c20.8-10.2,43.4-15.4,68.4-15.4c28.3,0,51.8,6.3,71.1,19.3c19.3,13,32.5,31,40.1,54.2l-36.8,7.8
		c-6.6-18.4-16-31.6-28.3-40.1c-12.4-8.4-28-12.7-47-12.7c-21.7,0-39.8,4.5-54.2,13.9c-14.5,9.3-24.7,21.7-30.7,37.4
		c-6,15.7-8.7,31.9-8.7,48.5c0,21.4,3.6,40.1,10.5,56.4c6.9,16,17.8,28,32.5,35.9c14.8,7.8,30.7,11.8,47.9,11.8
		c20.8,0,38.6-5.4,53-16.3C1739.5,603.3,1749.1,587.3,1754.2,565.9z"/>
	<path class="st7" d="M1838.3,654.5V401.9h125.1c25,0,44.3,2.4,57.3,6.9s23.5,12.7,31.3,24.1c7.8,11.5,11.8,24.1,11.8,38
		c0,17.8-6.3,33.2-19.3,45.2c-13,12.4-32.8,20.2-60,23.5c9.9,4.2,17.5,8.4,22.6,12.7c10.8,9,21.1,20.2,31,33.5l49.1,68.7h-47
		l-37.4-52.4c-10.8-15.1-19.9-26.8-26.8-34.7c-6.9-8.1-13.3-13.6-19-16.9s-11.2-5.4-17.2-6.6c-4.2-0.9-11.2-1.2-20.8-1.2h-43.4
		v112.1h-37.4V654.5z M1875.4,513.5h80.2c17.2,0,30.4-1.5,40.1-4.8c9.6-3,16.9-8.1,22-15.1c5.1-6.9,7.5-14.5,7.5-22.6
		c0-12.1-4.8-21.7-14.5-29.5c-9.6-7.8-25-11.5-45.8-11.5h-89.2v83.5H1875.4z"/>
	<path class="st7" d="M2110.7,531.5c0-41.9,12.7-74.7,37.7-98.2c25-23.8,57.6-35.6,97.3-35.6c25.9,0,49.4,5.4,70.5,16.6
		c20.8,11.2,36.8,26.5,47.9,46.7c10.8,19.9,16.6,42.5,16.6,67.8c0,25.6-5.7,48.5-17.2,68.7c-11.5,20.2-28,35.6-49.1,45.8
		c-21.1,10.2-44,15.7-68.4,15.7c-26.5,0-50.3-5.7-71.1-17.2c-20.8-11.5-36.8-27.1-47.6-47C2116.2,574.6,2110.7,553.8,2110.7,531.5z
		 M2149.3,532.1c0,30.4,9,54.2,27.4,72c18.4,17.5,41.3,26.2,68.7,26.2c28,0,51.2-8.7,69.3-26.5c18.1-17.8,27.1-42.8,27.1-75.3
		c0-20.5-3.9-38.6-11.8-53.9c-7.8-15.4-19-27.1-34.1-35.6c-15.1-8.4-31.6-12.7-50.3-12.7c-26.5,0-49.1,8.1-68.1,24.4
		C2159,467,2149.3,494.2,2149.3,532.1z"/>
	<path class="st7" d="M2428.7,654.5V401.9h106.4c18.7,0,33.2,0.9,42.8,2.4c13.9,2.1,25.3,6,35,11.8c9.3,5.7,16.9,13.9,22.6,24.4
		c5.7,10.5,8.4,22,8.4,34.4c0,21.4-7.5,39.5-22.9,54.5c-15.4,14.8-42.8,22.3-82.9,22.3h-72.3v102.5h-37.1V654.5z M2466.1,522.2h72.9
		c24.1,0,41.3-3.9,51.2-12.1c10.2-8.1,15.1-19.3,15.1-34.1c0-10.5-3-19.6-9-27.1c-6-7.5-13.9-12.4-23.5-14.8
		c-6.3-1.5-17.8-2.1-35-2.1h-72v90.1H2466.1z"/>
	<path class="st7" d="M2680.3,531.5c0-41.9,12.7-74.7,37.7-98.2c25-23.8,57.6-35.6,97.3-35.6c25.9,0,49.4,5.4,70.5,16.6
		c20.8,11.2,36.8,26.5,47.9,46.7c10.8,19.9,16.6,42.5,16.6,67.8c0,25.6-5.7,48.5-17.2,68.7c-11.5,20.2-28,35.6-49.1,45.8
		s-44,15.7-68.4,15.7c-26.5,0-50.3-5.7-71.1-17.2c-20.8-11.5-36.8-27.1-47.6-47C2685.8,574.6,2680.3,553.8,2680.3,531.5z
		 M2718.6,532.1c0,30.4,9,54.2,27.4,72c18.4,17.5,41.3,26.2,68.7,26.2c28,0,51.2-8.7,69.3-26.5c18.1-17.8,27.1-42.8,27.1-75.3
		c0-20.5-3.9-38.6-11.8-53.9c-7.8-15.4-19-27.1-34.1-35.6c-15.1-8.4-31.6-12.7-50.3-12.7c-26.5,0-49.1,8.1-68.1,24.4
		C2728.3,467,2718.6,494.2,2718.6,532.1z"/>
	<path class="st7" d="M2996.5,654.5V401.9h37.4v222.7h138.9v29.8H2996.5z"/>
	<path class="st7" d="M3223.7,654.5V401.9h37.4v252.5H3223.7z"/>
	<path class="st7" d="M3298.1,654.5l109.1-131.4l-96.1-120.8h44.3l51.2,64.8c10.5,13.6,18.1,23.8,22.6,31c6.3-9,13.9-18.7,22.3-28.6
		l56.7-66.9h40.7l-99.2,119l106.7,133.5h-46.1l-70.8-90.7c-3.9-5.1-8.1-10.8-12.4-16.9c-6.3,9-10.8,15.4-13.6,19l-70.8,88H3298.1z"
		/>
</g>
</svg>
